<svg width="262" height="46" viewBox="0 0 262 46" fill="none" xmlns="http://www.w3.org/2000/svg">
<path d="M8.32439 38.0545C10.035 39.7603 12.1868 40.6122 14.7787 40.6122C17.3698 40.6122 19.5166 39.7603 21.2207 38.0545C22.9237 36.3487 23.7742 34.2105 23.7742 31.6419C23.7742 29.0716 22.9237 26.9375 21.2207 25.239C19.5166 23.5429 17.3698 22.694 14.7787 22.694C12.1868 22.694 10.035 23.547 8.32439 25.2527C6.61277 26.9575 5.75711 29.0873 5.75711 31.6419C5.75711 34.2105 6.61277 36.3487 8.32439 38.0545ZM25.0959 17.9745L29.458 17.9982V45.3086H24.8973L24.3483 41.9964C23.0856 43.2655 21.5979 44.2493 19.8879 44.9492C18.1762 45.65 16.3321 45.9999 14.3547 45.9999C11.6631 45.9999 9.22112 45.3775 7.02836 44.1336C4.83503 42.8909 3.11541 41.1677 1.8692 38.9701C0.623382 36.7702 0 34.3273 0 31.6419C0 28.9394 0.623382 26.4977 1.8692 24.3136C3.11541 22.1312 4.83503 20.4216 7.02836 19.1847C9.22112 17.9493 11.6631 17.3311 14.3547 17.3311C16.3491 17.3311 18.2087 17.6858 19.9372 18.395C21.6647 19.1037 23.1608 20.1086 24.423 21.4087L25.0959 17.9745Z" fill="#1CABC4"/>
<path d="M37.5332 8.21191H43.1899V45.3329H37.5332V8.21191Z" fill="#1CABC4"/>
<path d="M82.0401 17.3806C84.9317 17.3806 87.2767 18.3693 89.0795 20.3471C90.8829 22.3233 91.7848 24.8604 91.7848 27.9588V45.3334H86.1274V29.3431C86.1274 27.1338 85.6623 25.4297 84.7327 24.2264C83.801 23.0241 82.4805 22.4217 80.7689 22.4217C78.9253 22.4217 77.384 23.1725 76.1468 24.6714C74.9078 26.1721 74.2903 28.0735 74.2903 30.3807V45.3334H68.7572V29.3431C68.7572 27.1338 68.2966 25.4297 67.3746 24.2264C66.4524 23.0241 65.1266 22.4217 63.3996 22.4217C61.5554 22.4217 60.0105 23.1725 58.7631 24.6714C57.5174 26.1721 56.8951 28.0735 56.8951 30.3807V45.3334H51.2383V17.9978H55.2498L56.2223 21.5325C57.2681 20.2312 58.5435 19.2137 60.0481 18.4797C61.5502 17.7478 63.1338 17.3806 64.7944 17.3806C66.6398 17.3806 68.2797 17.8052 69.717 18.6528C71.1537 19.5025 72.2715 20.6764 73.0685 22.1744C74.0819 20.6922 75.3769 19.523 76.9558 18.6655C78.5343 17.8089 80.2289 17.3806 82.0401 17.3806Z" fill="#1CABC4"/>
<path d="M105.766 38.0545C107.476 39.7603 109.628 40.6122 112.221 40.6122C114.811 40.6122 116.958 39.7603 118.663 38.0545C120.365 36.3487 121.216 34.2105 121.216 31.6419C121.216 29.0716 120.365 26.9375 118.663 25.239C116.958 23.5429 114.811 22.694 112.221 22.694C109.628 22.694 107.476 23.547 105.766 25.2527C104.054 26.9575 103.199 29.0873 103.199 31.6419C103.199 34.2105 104.054 36.3487 105.766 38.0545ZM122.537 17.9745L126.899 17.9982V45.3086H122.339L121.79 41.9964C120.528 43.2655 119.041 44.2493 117.329 44.9492C115.618 45.65 113.773 45.9999 111.796 45.9999C109.106 45.9999 106.662 45.3775 104.47 44.1336C102.276 42.8909 100.557 41.1677 99.3111 38.9701C98.0648 36.7702 97.4414 34.3273 97.4414 31.6419C97.4414 28.9394 98.0648 26.4977 99.3111 24.3136C100.557 22.1312 102.276 20.4216 104.47 19.1847C106.662 17.9493 109.106 17.3311 111.796 17.3311C113.79 17.3311 115.65 17.6858 117.379 18.395C119.106 19.1037 120.602 20.1086 121.865 21.4087L122.537 17.9745Z" fill="#1CABC4"/>
<path d="M19.1294 1.6145C18.7532 4.99648 19.8934 7.89414 22.1328 10.368C24.037 12.4695 26.4483 13.6758 29.3208 13.6758C29.5414 12.4969 29.4931 11.345 29.1594 10.2271C27.8182 5.74943 24.8157 2.97083 20.2806 1.78958C19.8423 1.67488 19.5787 1.6145 19.1294 1.6145Z" fill="#9BC32C"/>
<path d="M142.17 13.2876H146.021L152.759 22.5352L159.498 13.2876H163.349V34H159.119V20.5223L152.759 29.2449L146.4 20.5223V34H142.17V13.2876ZM165.677 34L174.603 13.2876H178.367L187.323 34H182.888L180.875 29.2741H172.036L170.053 34H165.677ZM176.47 18.8595L173.612 25.5692H179.3L176.47 18.8595ZM192.112 34H187.152L194.941 23.5271L187.59 13.2876H192.491L197.479 20.2598L202.497 13.2876H207.398L200.017 23.5271L207.836 34H202.876L197.479 26.8236L192.112 34Z" fill="#1CABC4"/>
</svg>
