<svg width="19" height="19" viewBox="0 0 19 19" fill="none" xmlns="http://www.w3.org/2000/svg">
<path d="M4.81804 18.9325C4.08314 18.9243 3.35516 18.7895 2.66604 18.534C2.16282 18.348 1.70753 18.0519 1.33345 17.6673C0.947829 17.294 0.651269 16.8386 0.465801 16.3349C0.210563 15.6458 0.0759686 14.9179 0.067925 14.1831C0.0114846 12.9615 0.00012207 12.5951 0.00012207 9.49986C0.00012207 6.40458 0.0126023 6.03949 0.0673662 4.81699C0.0763859 4.08247 0.211146 3.35493 0.465801 2.66592C0.652172 2.16261 0.948312 1.70714 1.33271 1.33259C1.70632 0.947309 2.16183 0.651024 2.66548 0.465679C3.3546 0.210229 4.08259 0.0754453 4.81748 0.0672441C6.03942 0.0113626 6.40638 0 9.49998 0C12.5936 0 12.9603 0.0124802 14.1828 0.0672441C14.9175 0.0762001 15.6453 0.210961 16.3345 0.465679C16.8379 0.651268 17.2933 0.94745 17.6671 1.3324C18.0521 1.70629 18.3484 2.16179 18.5342 2.66536C18.7897 3.35447 18.9245 4.08245 18.9328 4.81736C18.9887 6.03986 19 6.40588 19 9.50023C19 12.5946 18.9887 12.9606 18.9328 14.1831C18.9239 14.9179 18.7891 15.6457 18.5342 16.3349C18.3413 16.8347 18.046 17.2886 17.6671 17.6673C17.2883 18.0461 16.8343 18.3413 16.3345 18.534C15.6454 18.7895 14.9174 18.9244 14.1825 18.9327C12.9611 18.9885 12.594 18.9999 9.49961 18.9999C6.40526 18.9999 6.03924 18.9891 4.81785 18.9327" fill="#1CABC4"/>
<path d="M4.81804 18.9325C4.08314 18.9243 3.35516 18.7895 2.66604 18.534C2.16282 18.348 1.70753 18.0519 1.33345 17.6673C0.947829 17.294 0.651269 16.8386 0.465801 16.3349C0.210563 15.6458 0.0759686 14.9179 0.067925 14.1831C0.0114846 12.9615 0.00012207 12.5951 0.00012207 9.49986C0.00012207 6.40458 0.0126023 6.03949 0.0673662 4.81699C0.0763859 4.08247 0.211146 3.35493 0.465801 2.66592C0.652172 2.16261 0.948312 1.70714 1.33271 1.33259C1.70632 0.947309 2.16183 0.651024 2.66548 0.465679C3.3546 0.210229 4.08259 0.0754453 4.81748 0.0672441C6.03942 0.0113626 6.40638 0 9.49998 0C12.5936 0 12.9603 0.0124802 14.1828 0.0672441C14.9175 0.0762001 15.6453 0.210961 16.3345 0.465679C16.8379 0.651268 17.2933 0.94745 17.6671 1.3324C18.0521 1.70629 18.3484 2.16179 18.5342 2.66536C18.7897 3.35447 18.9245 4.08245 18.9328 4.81736C18.9887 6.03986 19 6.40588 19 9.50023C19 12.5946 18.9887 12.9606 18.9328 14.1831C18.9239 14.9179 18.7891 15.6457 18.5342 16.3349C18.3413 16.8347 18.046 17.2886 17.6671 17.6673C17.2883 18.0461 16.8343 18.3413 16.3345 18.534C15.6454 18.7895 14.9174 18.9244 14.1825 18.9327C12.9611 18.9885 12.594 18.9999 9.49961 18.9999C6.40526 18.9999 6.03924 18.9891 4.81785 18.9327" fill="#1CABC4"/>
<path d="M7.17813 9.49903C7.17817 9.03976 7.3144 8.59082 7.5696 8.20897C7.8248 7.82713 8.1875 7.52953 8.61185 7.35382C9.03619 7.1781 9.50311 7.13217 9.95357 7.22182C10.404 7.31146 10.8178 7.53267 11.1425 7.85746C11.4672 8.18225 11.6883 8.59604 11.7779 9.0465C11.8674 9.49695 11.8214 9.96384 11.6456 10.3881C11.4697 10.8124 11.172 11.175 10.7901 11.4301C10.4082 11.6852 9.95921 11.8214 9.49992 11.8213C8.88408 11.8212 8.29349 11.5765 7.85808 11.141C7.42266 10.7055 7.17808 10.1148 7.17813 9.49903ZM5.92265 9.49903C5.92265 10.2065 6.13245 10.8981 6.52553 11.4864C6.9186 12.0746 7.4773 12.5331 8.13096 12.8039C8.78462 13.0746 9.50389 13.1455 10.1978 13.0074C10.8917 12.8694 11.5291 12.5287 12.0294 12.0284C12.5297 11.5282 12.8704 10.8908 13.0085 10.1969C13.1465 9.503 13.0756 8.78375 12.8049 8.13012C12.5341 7.47648 12.0756 6.91781 11.4873 6.52475C10.8991 6.13169 10.2074 5.9219 9.49992 5.9219C9.03014 5.92187 8.56495 6.01438 8.13093 6.19414C7.6969 6.3739 7.30254 6.63739 6.97035 6.96956C6.63817 7.30173 6.37467 7.69608 6.1949 8.13009C6.01514 8.5641 5.92262 9.02927 5.92265 9.49903ZM12.3828 5.78016C12.3827 5.94549 12.4317 6.10712 12.5235 6.24463C12.6153 6.38213 12.7458 6.48933 12.8985 6.55267C13.0512 6.616 13.2193 6.63263 13.3815 6.60045C13.5436 6.56827 13.6926 6.48872 13.8096 6.37187C13.9266 6.25501 14.0062 6.1061 14.0386 5.94397C14.0709 5.78183 14.0544 5.61375 13.9912 5.46098C13.928 5.3082 13.8209 5.17761 13.6835 5.0857C13.5461 4.99378 13.3845 4.94469 13.2191 4.94461C12.9975 4.94471 12.785 5.03276 12.6283 5.18943C12.4715 5.34609 12.3834 5.55855 12.3832 5.78016H12.3828ZM6.68579 15.1695C6.24403 15.1647 5.8064 15.0838 5.39206 14.9305C5.09158 14.8147 4.81868 14.6373 4.59092 14.4096C4.36317 14.182 4.1856 13.9092 4.06966 13.6087C3.91629 13.1944 3.83545 12.7568 3.83066 12.3151C3.79684 11.5808 3.79022 11.3602 3.79022 9.49995C3.79022 7.63969 3.79757 7.41963 3.83066 6.68465C3.83602 6.24295 3.91685 5.80542 4.06966 5.39097C4.18547 5.09041 4.36298 4.81745 4.59075 4.58969C4.81852 4.36193 5.09149 4.18443 5.39206 4.06862C5.80638 3.91526 6.24402 3.83442 6.68579 3.82963C7.42007 3.79581 7.64068 3.78919 9.50029 3.78919C11.3599 3.78919 11.5807 3.79636 12.3157 3.82982C12.7574 3.83518 13.195 3.916 13.6094 4.06881C13.91 4.18462 14.183 4.36213 14.4107 4.58989C14.6385 4.81764 14.816 5.0906 14.9318 5.39116C15.0852 5.80546 15.166 6.24308 15.1708 6.68483C15.2047 7.42019 15.2113 7.63969 15.2113 9.50013C15.2113 11.3606 15.2045 11.5805 15.1708 12.3154C15.1657 12.7571 15.0848 13.1947 14.9318 13.6091C14.8159 13.9095 14.6383 14.1823 14.4106 14.41C14.1828 14.6377 13.9099 14.8151 13.6094 14.9309C13.1951 15.0843 12.7575 15.1651 12.3157 15.1699C11.5814 15.2037 11.3608 15.2103 9.50029 15.2103C7.63976 15.2103 7.41989 15.2035 6.68579 15.1699V15.1695ZM6.62806 2.5753C6.05002 2.58667 5.4781 2.69607 4.93668 2.89885C4.47385 3.0778 4.05352 3.35148 3.70264 3.70235C3.35176 4.05321 3.07806 4.47353 2.89911 4.93634C2.69635 5.47775 2.58694 6.04964 2.57555 6.62766C2.54117 7.37036 2.53345 7.60788 2.53345 9.49976C2.53345 11.3916 2.54135 11.629 2.57555 12.3719C2.58694 12.9499 2.69634 13.5218 2.89911 14.0632C3.07807 14.526 3.35177 14.9463 3.70265 15.2972C4.05353 15.648 4.47385 15.9217 4.93668 16.1007C5.47813 16.3034 6.05003 16.4128 6.62806 16.4242C7.37117 16.4581 7.60833 16.4663 9.50029 16.4663C11.3922 16.4663 11.6296 16.4584 12.3725 16.4242C12.9506 16.4128 13.5225 16.3034 14.0639 16.1007C14.5267 15.9217 14.947 15.648 15.2979 15.2972C15.6488 14.9463 15.9225 14.526 16.1015 14.0632C16.3045 13.5219 16.4139 12.9499 16.425 12.3719C16.4589 11.6286 16.4666 11.3916 16.4666 9.49976C16.4666 7.60788 16.4587 7.37055 16.425 6.62766C16.4137 6.04964 16.3042 5.47774 16.1015 4.93634C15.9225 4.47361 15.6489 4.05337 15.2981 3.70251C14.9473 3.35165 14.5271 3.07792 14.0644 2.89885C13.5231 2.69594 12.9511 2.58653 12.3731 2.5753C11.6301 2.54129 11.3928 2.5332 9.50121 2.5332C7.60962 2.5332 7.37172 2.54111 6.62843 2.5753" fill="white"/>
</svg>
