<svg width="19" height="19" viewBox="0 0 19 19" fill="none" xmlns="http://www.w3.org/2000/svg">
<path d="M16.4091 0H2.59091C1.90376 0 1.24475 0.27297 0.75886 0.75886C0.27297 1.24475 0 1.90376 0 2.59091L0 16.4091C0 17.0962 0.27297 17.7553 0.75886 18.2411C1.24475 18.727 1.90376 19 2.59091 19H16.4091C17.0962 19 17.7553 18.727 18.2411 18.2411C18.727 17.7553 19 17.0962 19 16.4091V2.59091C19 1.90376 18.727 1.24475 18.2411 0.75886C17.7553 0.27297 17.0962 0 16.4091 0V0ZM6.47727 15.0359C6.47741 15.0886 6.46716 15.1408 6.4471 15.1895C6.42703 15.2382 6.39755 15.2825 6.36035 15.3198C6.32314 15.3571 6.27894 15.3867 6.23028 15.4069C6.18162 15.4271 6.12945 15.4375 6.07676 15.4375H4.37C4.31722 15.4376 4.26494 15.4274 4.21615 15.4072C4.16736 15.3871 4.12303 15.3575 4.08571 15.3202C4.0484 15.2829 4.01882 15.2385 3.99869 15.1898C3.97856 15.141 3.96827 15.0887 3.96841 15.0359V7.88068C3.96841 7.77417 4.01072 7.67203 4.08603 7.59671C4.16135 7.5214 4.26349 7.47909 4.37 7.47909H6.07676C6.18308 7.47938 6.28495 7.52181 6.36003 7.5971C6.43511 7.67238 6.47727 7.77436 6.47727 7.88068V15.0359ZM5.22284 6.80114C4.90257 6.80114 4.58949 6.70617 4.3232 6.52823C4.0569 6.3503 3.84935 6.0974 3.72679 5.8015C3.60422 5.50561 3.57216 5.18002 3.63464 4.86591C3.69712 4.55179 3.85134 4.26325 4.07781 4.03679C4.30428 3.81032 4.59281 3.6561 4.90693 3.59361C5.22104 3.53113 5.54664 3.5632 5.84253 3.68576C6.13842 3.80833 6.39132 4.01588 6.56925 4.28217C6.74719 4.54847 6.84216 4.86155 6.84216 5.18182C6.84216 5.61129 6.67155 6.02317 6.36787 6.32685C6.06419 6.63053 5.65231 6.80114 5.22284 6.80114ZM15.3986 15.064C15.3988 15.1125 15.3893 15.1606 15.3708 15.2054C15.3523 15.2503 15.3251 15.291 15.2908 15.3254C15.2565 15.3597 15.2157 15.3869 15.1709 15.4054C15.126 15.4239 15.078 15.4333 15.0294 15.4332H13.1942C13.1457 15.4333 13.0976 15.4239 13.0527 15.4054C13.0079 15.3869 12.9671 15.3597 12.9328 15.3254C12.8985 15.291 12.8713 15.2503 12.8528 15.2054C12.8343 15.1606 12.8249 15.1125 12.825 15.064V11.712C12.825 11.2111 12.9718 9.51835 11.5155 9.51835C10.3874 9.51835 10.1574 10.6767 10.1121 11.197V15.0683C10.1121 15.1653 10.074 15.2584 10.0059 15.3275C9.9378 15.3966 9.84528 15.4361 9.7483 15.4375H7.97568C7.92725 15.4375 7.87929 15.4279 7.83456 15.4094C7.78982 15.3908 7.74919 15.3636 7.715 15.3293C7.6808 15.295 7.6537 15.2543 7.63527 15.2095C7.61683 15.1647 7.60742 15.1167 7.60756 15.0683V7.84937C7.60742 7.80094 7.61683 7.75296 7.63527 7.70817C7.6537 7.66338 7.6808 7.62267 7.715 7.58837C7.74919 7.55408 7.78982 7.52686 7.83456 7.5083C7.87929 7.48973 7.92725 7.48017 7.97568 7.48017H9.7483C9.84622 7.48017 9.94012 7.51907 10.0094 7.58831C10.0786 7.65755 10.1175 7.75146 10.1175 7.84937V8.47335C10.5364 7.84398 11.1571 7.36034 12.4817 7.36034C15.4159 7.36034 15.3965 10.1002 15.3965 11.6051L15.3986 15.064Z" fill="#1CABC4"/>
</svg>
