<svg width="19" height="19" viewBox="0 0 19 19" fill="none" xmlns="http://www.w3.org/2000/svg">
<path d="M9.5 0C4.26172 0 0 4.26172 0 9.5C0 14.7379 4.26172 19 9.5 19C14.7379 19 19 14.7379 19 9.5C19 4.26172 14.7387 0 9.5 0ZM13.738 7.32571C13.7422 7.41984 13.7445 7.51474 13.7445 7.60964C13.7445 10.4991 11.5457 13.8298 7.52278 13.8298C6.28792 13.8298 5.1384 13.469 4.17103 12.8483C4.34208 12.8686 4.51619 12.8789 4.6926 12.8789C5.71737 12.8789 6.65987 12.5292 7.40836 11.9429C6.4517 11.9253 5.6439 11.2932 5.36571 10.4241C5.49887 10.4494 5.63625 10.4635 5.77669 10.4635C5.97605 10.4635 6.16968 10.4375 6.35298 10.3874C5.35269 10.1869 4.59923 9.30331 4.59923 8.24333C4.59923 8.23415 4.59923 8.22458 4.59961 8.21578C4.89426 8.37918 5.23139 8.47791 5.58956 8.489C5.00332 8.09754 4.61722 7.42788 4.61722 6.66944C4.61722 6.26841 4.72474 5.89263 4.91301 5.56966C5.99098 6.89291 7.60276 7.76309 9.41964 7.85493C9.38214 7.69459 9.36339 7.52814 9.36339 7.35632C9.36339 6.14902 10.3422 5.16978 11.5495 5.16978C12.1786 5.16978 12.7461 5.43535 13.1456 5.86011C13.6442 5.76214 14.1111 5.58076 14.5347 5.32935C14.3702 5.84021 14.0246 6.26841 13.5719 6.53933C14.0147 6.48653 14.4371 6.36943 14.8278 6.19532C14.5362 6.63309 14.1654 7.01843 13.738 7.32571Z" fill="#1CABC4"/>
</svg>
