<svg width="24" height="14" viewBox="0 0 24 14" fill="none" xmlns="http://www.w3.org/2000/svg">
<path d="M23.8727 12.5201C23.8436 12.4575 23.8165 12.4055 23.7913 12.3639C23.3749 11.614 22.5792 10.6935 21.4047 9.60213L21.3798 9.57714L21.3674 9.56489L21.3548 9.55233H21.3422C20.8092 9.04415 20.4716 8.70246 20.3302 8.52752C20.0716 8.19428 20.0136 7.85697 20.155 7.5152C20.2549 7.25697 20.63 6.71164 21.2796 5.87845C21.6213 5.43689 21.8919 5.08299 22.0917 4.81636C23.533 2.90025 24.1579 1.67583 23.9662 1.14262L23.8917 1.01801C23.8417 0.942996 23.7126 0.874369 23.5046 0.811782C23.2961 0.749327 23.0296 0.738999 22.7046 0.780621L19.1059 0.80548C19.0476 0.784822 18.9644 0.786748 18.8559 0.811782C18.7476 0.836817 18.6934 0.849379 18.6934 0.849379L18.6308 0.880672L18.5811 0.918267C18.5394 0.943127 18.4936 0.98685 18.4436 1.04935C18.3938 1.11163 18.3522 1.18472 18.3189 1.26801C17.9271 2.276 17.4817 3.21318 16.9817 4.0795C16.6735 4.59608 16.3904 5.04377 16.1318 5.42284C15.8737 5.80177 15.6571 6.08096 15.4823 6.25992C15.3072 6.43906 15.1492 6.58257 15.0073 6.69098C14.8656 6.79943 14.7575 6.84526 14.6826 6.8285C14.6075 6.81173 14.5368 6.7951 14.4699 6.77847C14.3534 6.70345 14.2596 6.60143 14.1889 6.47232C14.118 6.34321 14.0702 6.1807 14.0452 5.98493C14.0203 5.78903 14.0056 5.62053 14.0014 5.47886C13.9975 5.33736 13.9993 5.13721 14.0077 4.87899C14.0164 4.62064 14.0203 4.44583 14.0203 4.35418C14.0203 4.03757 14.0265 3.69396 14.0389 3.32325C14.0515 2.95255 14.0617 2.65883 14.0702 2.44245C14.0787 2.22584 14.0826 1.99668 14.0826 1.75509C14.0826 1.5135 14.0679 1.32403 14.0389 1.18651C14.0102 1.04917 13.9661 0.91586 13.908 0.786617C13.8496 0.657505 13.7641 0.557629 13.6518 0.486726C13.5394 0.415912 13.3996 0.359715 13.2333 0.317961C12.7917 0.218042 12.2294 0.16399 11.5462 0.155587C9.99678 0.138955 9.00122 0.239006 8.5597 0.455608C8.38476 0.547124 8.22646 0.672166 8.08492 0.830339C7.93493 1.01368 7.91401 1.11373 8.02229 1.13019C8.52219 1.20507 8.87609 1.38421 9.08438 1.66742L9.15944 1.8175C9.21782 1.92578 9.27612 2.11748 9.33446 2.39233C9.39271 2.66719 9.43031 2.97124 9.44685 3.3043C9.48843 3.91253 9.48843 4.43318 9.44685 4.8663C9.40514 5.29959 9.36575 5.6369 9.32816 5.87849C9.29056 6.12009 9.23436 6.31586 9.15944 6.46576C9.08438 6.6157 9.03444 6.70735 9.0094 6.74061C8.98441 6.77388 8.96358 6.79484 8.94703 6.80307C8.83876 6.84456 8.72614 6.8657 8.60959 6.8657C8.49287 6.8657 8.35132 6.80731 8.18475 6.69063C8.01822 6.57395 7.84538 6.41367 7.66624 6.20955C7.4871 6.00537 7.28508 5.72006 7.06007 5.35355C6.83524 4.98705 6.60196 4.55389 6.36037 4.05407L6.16049 3.6916C6.03553 3.45841 5.86484 3.11886 5.64824 2.67327C5.43151 2.22751 5.23994 1.79632 5.07341 1.37979C5.00684 1.20485 4.90683 1.07167 4.77356 0.980023L4.71102 0.942427C4.66944 0.909164 4.6027 0.873844 4.51114 0.836204C4.41944 0.798609 4.32377 0.771648 4.22372 0.75506L0.799883 0.77992C0.450011 0.77992 0.212619 0.859182 0.0876212 1.01749L0.0375957 1.09237C0.0126049 1.13408 0 1.20069 0 1.29239C0 1.38403 0.0249909 1.49651 0.0750163 1.6297C0.574834 2.8044 1.11837 3.9373 1.70564 5.02859C2.2929 6.11987 2.80322 6.99892 3.23629 7.66497C3.66946 8.33149 4.11097 8.96055 4.56085 9.55184C5.01073 10.1434 5.30852 10.5224 5.45422 10.6889C5.6001 10.8558 5.71468 10.9805 5.79797 11.0638L6.11042 11.3637C6.31035 11.5636 6.60393 11.8031 6.99131 12.0821C7.37878 12.3613 7.80774 12.6362 8.27841 12.9071C8.74916 13.1777 9.29682 13.3984 9.92168 13.5692C10.5465 13.7401 11.1545 13.8086 11.7461 13.7756H13.1831C13.4745 13.7504 13.6953 13.6587 13.8454 13.5006L13.8951 13.4379C13.9286 13.3882 13.9599 13.311 13.9888 13.207C14.018 13.1029 14.0325 12.9882 14.0325 12.8634C14.024 12.5053 14.0513 12.1825 14.1136 11.8951C14.1759 11.6078 14.2468 11.3912 14.3262 11.2454C14.4056 11.0996 14.4951 10.9766 14.5948 10.8769C14.6947 10.777 14.7658 10.7165 14.8076 10.6956C14.8491 10.6747 14.8822 10.6605 14.9072 10.6519C15.1071 10.5853 15.3424 10.6498 15.6134 10.8458C15.8842 11.0415 16.1382 11.2833 16.3758 11.5705C16.6132 11.8581 16.8985 12.1807 17.2316 12.5388C17.565 12.8971 17.8565 13.1634 18.1063 13.3386L18.3561 13.4886C18.523 13.5886 18.7396 13.6803 19.0062 13.7636C19.2723 13.8468 19.5055 13.8676 19.7058 13.826L22.9045 13.7761C23.2209 13.7761 23.4671 13.7237 23.6417 13.6198C23.8167 13.5157 23.9207 13.401 23.9542 13.2762C23.9876 13.1513 23.9894 13.0096 23.9605 12.8511C23.9309 12.6931 23.9017 12.5826 23.8727 12.5201Z" fill="#1CABC4"/>
</svg>
