<svg width="19" height="19" viewBox="0 0 19 19" fill="none" xmlns="http://www.w3.org/2000/svg">
<path d="M0 19L1.34218 14.1212C0.514138 12.6934 0.0786913 11.0735 0.0792137 9.41441C0.0813851 4.22331 4.32524 0 9.53961 0C12.0704 0.00113769 14.4457 0.981635 16.2316 2.7612C18.0179 4.54075 19.001 6.90616 19 9.42178C18.9978 14.613 14.7537 18.8367 9.53999 18.8367C9.53962 18.8367 9.54025 18.8367 9.53999 18.8367H9.53578C7.95253 18.8362 6.39685 18.4405 5.01515 17.6909L0 19Z" fill="#1CABC4"/>
<path fill-rule="evenodd" clip-rule="evenodd" d="M7.57633 5.47079C7.38958 5.02311 7.19296 5.01415 7.01529 5.00631C6.86997 4.99959 6.70361 5 6.53751 5C6.37128 5 6.10115 5.06736 5.87272 5.33636C5.64415 5.60537 5 6.25566 5 7.57825C5 8.90098 5.8935 10.179 6.01804 10.3586C6.14271 10.5378 7.74282 13.3387 10.2769 14.4162C12.383 15.3117 12.8116 15.1336 13.2687 15.0888C13.7259 15.044 14.7438 14.4386 14.9516 13.8109C15.1594 13.1832 15.1594 12.6453 15.097 12.5328C15.0347 12.4208 14.8685 12.3536 14.6191 12.2191C14.3698 12.0847 13.1441 11.4343 12.9155 11.3446C12.6869 11.255 12.5207 11.2102 12.3545 11.4794C12.1882 11.7482 11.7107 12.3536 11.5652 12.5328C11.4198 12.7125 11.2743 12.7349 11.025 12.6004C10.7756 12.4656 9.97266 12.182 9.02008 11.2662C8.27892 10.5537 7.77853 9.67377 7.63308 9.40465C7.48763 9.13579 7.61749 8.99015 7.74256 8.85614C7.8545 8.73571 7.99191 8.54233 8.11658 8.38535C8.24099 8.22837 8.28255 8.11635 8.36566 7.93711C8.44878 7.75758 8.40722 7.60062 8.34488 7.46619C8.28255 7.33176 7.79801 6.00235 7.57633 5.47079Z" fill="white"/>
</svg>
