<svg width="20" height="15" viewBox="0 0 20 15" fill="none" xmlns="http://www.w3.org/2000/svg">
<path d="M19.9954 5.47093C20.0403 4.19863 19.7559 2.93584 19.1686 1.79983C18.7702 1.33369 18.2172 1.01913 17.606 0.91094C15.0781 0.686519 12.5397 0.594536 10.0017 0.635385C7.47298 0.592681 4.94372 0.681696 2.42467 0.902051C1.92663 0.990688 1.46574 1.21924 1.09823 1.55983C0.280565 2.2976 0.189713 3.55982 0.0988612 4.62649C-0.0329537 6.54432 -0.0329537 8.46865 0.0988612 10.3865C0.125145 10.9868 0.216509 11.5828 0.371416 12.1643C0.480961 12.6132 0.702592 13.0286 1.01646 13.3731C1.38647 13.7318 1.8581 13.9733 2.37015 14.0665C4.32884 14.303 6.30242 14.4011 8.27552 14.3598C11.4553 14.4042 14.2445 14.3598 17.5424 14.1109C18.067 14.0235 18.5519 13.7816 18.9324 13.4176C19.1868 13.1686 19.3768 12.8639 19.4866 12.5287C19.8115 11.5532 19.9711 10.5324 19.9591 9.50648C19.9954 9.0087 19.9954 6.00426 19.9954 5.47093ZM7.94845 10.0398V4.5376L13.3269 7.30204C11.8187 8.11982 9.82908 9.04426 7.94845 10.0398Z" fill="#1CABC4"/>
</svg>
