<svg xmlns="http://www.w3.org/2000/svg" fill="none" viewBox="2 6 20 14">
<path d="M10 18H3C2.4 18 2 17.6 2 17C2 16.4 2.4 16 3 16H10C10.6 16 11 16.4 11 17C11 17.6 10.6 18 10 18Z" fill="#000026"/>
<path d="M21 17H15C14.4 17 14 16.6 14 16C14 15.4 14.4 15 15 15H21C21.6 15 22 15.4 22 16C22 16.6 21.6 17 21 17Z" fill="#000026"/>
<path d="M18 20C17.4 20 17 19.6 17 19V13C17 12.4 17.4 12 18 12C18.6 12 19 12.4 19 13V19C19 19.6 18.6 20 18 20Z" fill="#000026"/>
<path d="M14 13H3C2.4 13 2 12.6 2 12C2 11.4 2.4 11 3 11H14C14.6 11 15 11.4 15 12C15 12.6 14.6 13 14 13Z" fill="#000026"/>
<path d="M14 8H3C2.4 8 2 7.6 2 7C2 6.4 2.4 6 3 6H14C14.6 6 15 6.4 15 7C15 7.6 14.6 8 14 8Z" fill="#000026"/>
</svg>