<svg xmlns="http://www.w3.org/2000/svg" fill="none" viewBox="2 6 20 13.2">
<path fill-rule="evenodd" clip-rule="evenodd" d="M3 8H14C14.6 8 15 7.6 15 7C15 6.4 14.6 6 14 6H3C2.4 6 2 6.4 2 7C2 7.6 2.4 8 3 8ZM14 13H3C2.4 13 2 12.6 2 12C2 11.4 2.4 11 3 11H14C14.6 11 15 11.4 15 12C15 12.6 14.6 13 14 13ZM21.7898 14.1406C22.0883 13.8149 22.0663 13.3089 21.7406 13.0103C21.4149 12.7118 20.9088 12.7338 20.6103 13.0595L16.8287 17.1849L15.4146 15.4879C15.1317 15.1485 14.6273 15.1026 14.2879 15.3855C13.9485 15.6683 13.9026 16.1728 14.1854 16.5122L16.1854 18.9122C16.3332 19.0895 16.5503 19.1944 16.7811 19.1998C17.0119 19.2053 17.2338 19.1108 17.3898 18.9406L21.7898 14.1406ZM3 18H10C10.6 18 11 17.6 11 17C11 16.4 10.6 16 10 16H3C2.4 16 2 16.4 2 17C2 17.6 2.4 18 3 18Z" fill="#9BC32C"/>
</svg>