<svg width="56" height="56" viewBox="0 0 56 56" fill="none" xmlns="http://www.w3.org/2000/svg">
<rect width="56" height="56" rx="28" transform="matrix(-1 0 0 1 56 0)" fill="#F2F3F7"/>
<path d="M31.2955 27.9203L22.3805 19.005C22.135 18.7601 22 18.4327 22 18.0835C22 17.7342 22.135 17.407 22.3805 17.1617L23.1617 16.3809C23.4068 16.1352 23.7344 16 24.0835 16C24.4327 16 24.7599 16.1352 25.0052 16.3809L35.6199 26.9954C35.8661 27.2415 36.001 27.5702 36 27.9198C36.001 28.2708 35.8663 28.5992 35.6199 28.8455L25.0151 39.4497C24.7698 39.6954 24.4425 39.8306 24.0932 39.8306C23.7441 39.8306 23.4169 39.6954 23.1714 39.4497L22.3904 38.6689C21.8822 38.1607 21.8822 37.3334 22.3904 36.8254L31.2955 27.9203Z" fill="#000026"/>
</svg>
