<svg width="19" height="18" viewBox="0 0 19 18" fill="none" xmlns="http://www.w3.org/2000/svg">
<path fill-rule="evenodd" clip-rule="evenodd" d="M0.75 7.25V14.25C0.75 16.183 2.317 17.75 4.25 17.75H11.25C13.183 17.75 14.75 16.183 14.75 14.25C16.683 14.25 18.25 12.683 18.25 10.75V7.6875V3.75C18.25 1.817 16.683 0.25 14.75 0.25H7.75C5.817 0.25 4.25 1.817 4.25 3.75C2.317 3.75 0.75 5.317 0.75 7.25ZM6 3.75H11.25C13.183 3.75 14.75 5.317 14.75 7.25V12.5C15.7165 12.5 16.5 11.7165 16.5 10.75V7.6875V3.75C16.5 2.7835 15.7165 2 14.75 2H7.75C6.7835 2 6 2.7835 6 3.75ZM4.25 16C3.2835 16 2.5 15.2165 2.5 14.25V7.25C2.5 6.2835 3.2835 5.5 4.25 5.5H11.25C12.2165 5.5 13 6.2835 13 7.25V14.25C13 15.2165 12.2165 16 11.25 16H4.25Z" fill="#000026"/>
</svg>
