<svg xmlns="http://www.w3.org/2000/svg" fill="none" viewBox="2.58 4.17 20.83 16.67">
<path d="M21.8535 11.4583H4.14518C3.52018 11.4583 3.10352 11.0417 3.10352 10.4167C3.10352 9.79167 3.52018 9.375 4.14518 9.375H21.8535C22.4785 9.375 22.8952 9.79167 22.8952 10.4167C22.8952 11.0417 22.4785 11.4583 21.8535 11.4583Z" fill="#000026"/>
<path d="M8.83398 15.625H6.75065C6.12565 15.625 5.70898 15.2083 5.70898 14.5833C5.70898 13.9583 6.12565 13.5416 6.75065 13.5416H8.83398C9.45898 13.5416 9.87565 13.9583 9.87565 14.5833C9.87565 15.2083 9.45898 15.625 8.83398 15.625Z" fill="#000026"/>
<path d="M14.041 15.625H11.9577C11.3327 15.625 10.916 15.2083 10.916 14.5833C10.916 13.9583 11.3327 13.5416 11.9577 13.5416H14.041C14.666 13.5416 15.0827 13.9583 15.0827 14.5833C15.0827 15.2083 14.666 15.625 14.041 15.625Z" fill="#000026"/>
<path d="M18.209 20.8333H7.79232C5.60482 20.8333 4.45898 20.8333 3.52148 19.8958C2.58398 18.9583 2.58398 17.8125 2.58398 15.625V9.37496C2.58398 7.18746 2.58398 6.04163 3.52148 5.10413C4.45898 4.16663 5.60482 4.16663 7.79232 4.16663H18.209C20.3965 4.16663 21.5423 4.16663 22.4798 5.10413C23.4173 6.04163 23.4173 7.18746 23.4173 9.37496V15.625C23.4173 17.8125 23.4173 18.9583 22.4798 19.8958C21.5423 20.8333 20.3965 20.8333 18.209 20.8333ZM7.79232 6.24996C6.22982 6.24996 5.29232 6.24996 4.97982 6.56246C4.66732 6.87496 4.66732 7.81246 4.66732 9.37496V15.625C4.66732 17.1875 4.66732 18.125 4.97982 18.4375C5.29232 18.75 6.22982 18.75 7.79232 18.75H18.209C19.7715 18.75 20.709 18.75 21.0215 18.4375C21.334 18.125 21.334 17.1875 21.334 15.625V9.37496C21.334 7.81246 21.334 6.87496 21.0215 6.56246C20.709 6.24996 19.7715 6.24996 18.209 6.24996H7.79232Z" fill="#000026"/>
</svg>