<svg xmlns="http://www.w3.org/2000/svg" fill="none" viewBox="2.75 2.25 13.5 15">
<path d="M5 15C3.725 15 2.75 14.025 2.75 12.75V11.25C2.75 9.975 3.725 9 5 9C6.275 9 7.25 9.975 7.25 11.25V12.75C7.25 14.025 6.275 15 5 15ZM5 10.5C4.55 10.5 4.25 10.8 4.25 11.25V12.75C4.25 13.2 4.55 13.5 5 13.5C5.45 13.5 5.75 13.2 5.75 12.75V11.25C5.75 10.8 5.45 10.5 5 10.5Z" fill="#1CABC4"/>
<path d="M14 15C12.725 15 11.75 14.025 11.75 12.75V11.25C11.75 9.975 12.725 9 14 9C15.275 9 16.25 9.975 16.25 11.25V12.75C16.25 14.025 15.275 15 14 15ZM14 10.5C13.55 10.5 13.25 10.8 13.25 11.25V12.75C13.25 13.2 13.55 13.5 14 13.5C14.45 13.5 14.75 13.2 14.75 12.75V11.25C14.75 10.8 14.45 10.5 14 10.5Z" fill="#1CABC4"/>
<path d="M15.5 12C15.05 12 14.75 11.7 14.75 11.25V9C14.75 7.575 14.225 6.3 13.25 5.325C12.2 4.275 10.925 3.75 9.5 3.75C8.075 3.75 6.8 4.275 5.825 5.325C4.775 6.3 4.25 7.575 4.25 9V11.25C4.25 11.7 3.95 12 3.5 12C3.05 12 2.75 11.7 2.75 11.25V9C2.75 7.2 3.425 5.475 4.7 4.2C5.975 2.925 7.7 2.25 9.5 2.25C11.3 2.25 13.025 2.925 14.3 4.2C15.575 5.475 16.25 7.2 16.25 9V11.25C16.25 11.7 15.95 12 15.5 12Z" fill="#1CABC4"/>
<path d="M9.5 17.25C9.05 17.25 8.75 16.95 8.75 16.5C8.75 16.05 9.05 15.75 9.5 15.75C10.55 15.75 11.6 15.525 12.35 15.15C12.875 14.85 13.25 14.55 13.25 14.25C13.25 13.8 13.55 13.5 14 13.5C14.45 13.5 14.75 13.8 14.75 14.25C14.75 15.15 14.15 15.975 13.025 16.5C12.05 17.025 10.85 17.25 9.5 17.25Z" fill="#1CABC4"/>
</svg>