<svg xmlns="http://www.w3.org/2000/svg" fill="none" viewBox="2.03 2.76 20.95 20.16">
<path d="M15.6263 22.9167H9.3763C7.1888 22.9167 6.04297 22.9167 5.10547 21.9792C4.16797 21.0417 4.16797 19.8958 4.16797 17.7083V9.375H6.2513V17.7083C6.2513 19.2708 6.2513 20.2083 6.5638 20.5208C6.8763 20.8333 7.8138 20.8333 9.3763 20.8333H15.6263C17.1888 20.8333 18.1263 20.8333 18.4388 20.5208C18.7513 20.2083 18.7513 19.2708 18.7513 17.7083V9.375H20.8346V17.7083C20.8346 19.8958 20.8346 21.0417 19.8971 21.9792C18.9596 22.9167 17.8138 22.9167 15.6263 22.9167Z" fill="white"/>
<path d="M21.8759 12.5C21.6676 12.5 21.3551 12.3958 21.1468 12.1875L13.1259 5.10413C12.7093 4.79163 12.1884 4.79163 11.7718 5.10413L3.75093 12.1875C3.33426 12.6041 2.70926 12.5 2.29259 12.0833C1.87593 11.6666 1.98009 11.0416 2.39676 10.625L10.4176 3.54163C11.5634 2.49996 13.3343 2.49996 14.5843 3.54163L22.6051 10.625C23.0218 11.0416 23.1259 11.6666 22.7093 12.0833C22.3968 12.3958 22.1884 12.5 21.8759 12.5Z" fill="white"/>
<path d="M14.5833 22.9167C13.9583 22.9167 13.5417 22.5 13.5417 21.875V17.7084C13.5417 17.0834 13.125 16.6667 12.5 16.6667C11.875 16.6667 11.4583 17.0834 11.4583 17.7084V21.875C11.4583 22.5 11.0417 22.9167 10.4167 22.9167C9.79167 22.9167 9.375 22.5 9.375 21.875V17.7084C9.375 15.9375 10.7292 14.5834 12.5 14.5834C14.2708 14.5834 15.625 15.9375 15.625 17.7084V21.875C15.625 22.5 15.2083 22.9167 14.5833 22.9167Z" fill="white"/>
</svg>