<svg xmlns="http://www.w3.org/2000/svg" fill="none" viewBox="1.75 2.25 17.5 17.5">
<path d="M10.5 19.75C5.6875 19.75 1.75 15.8125 1.75 11C1.75 6.1875 5.6875 2.25 10.5 2.25C15.3125 2.25 19.25 6.1875 19.25 11C19.25 15.8125 15.3125 19.75 10.5 19.75ZM10.5 4C6.65 4 3.5 7.15 3.5 11C3.5 14.85 6.65 18 10.5 18C14.35 18 17.5 14.85 17.5 11C17.5 7.15 14.35 4 10.5 4Z" fill="#9BC32C"/>
<path d="M10.5 8.375C9.975 8.375 9.625 8.025 9.625 7.5C9.625 6.975 9.975 6.625 10.5 6.625C11.025 6.625 11.375 6.975 11.375 7.5C11.375 8.025 11.025 8.375 10.5 8.375Z" fill="#9BC32C"/>
<path d="M11.375 15.375H10.5C9.975 15.375 9.625 15.025 9.625 14.5V11.875C9.1 11.875 8.75 11.525 8.75 11C8.75 10.475 9.1 10.125 9.625 10.125H10.5C11.025 10.125 11.375 10.475 11.375 11V13.625C11.9 13.625 12.25 13.975 12.25 14.5C12.25 15.025 11.9 15.375 11.375 15.375Z" fill="#9BC32C"/>
</svg>