<svg width="14" height="14" viewBox="0 0 14 14" fill="none" xmlns="http://www.w3.org/2000/svg">
<path fill-rule="evenodd" clip-rule="evenodd" d="M11.242 2.7574C10.3633 1.87872 8.93864 1.87872 8.05994 2.7574L6.99929 3.81806C6.70642 4.11095 6.23152 4.11095 5.93864 3.81806C5.64577 3.52517 5.64577 3.05029 5.93864 2.7574L6.99929 1.69674C8.46374 0.232271 10.8382 0.232271 12.3026 1.69674C13.7671 3.16121 13.7671 5.53559 12.3026 7.00004L11.242 8.06069C10.9491 8.35356 10.4742 8.35356 10.1813 8.06069C9.88837 7.76781 9.88837 7.29291 10.1813 7.00004L11.242 5.93939C12.1206 5.0607 12.1206 3.63608 11.242 2.7574ZM2.75667 11.2427C1.87799 10.364 1.87799 8.93939 2.75667 8.06069L3.81733 7.00004C4.11023 6.70716 4.11023 6.23226 3.81733 5.93939C3.52444 5.64651 3.04956 5.64651 2.75667 5.93939L1.696 7.00004C0.23154 8.46449 0.23154 10.8389 1.696 12.3034C3.16048 13.7678 5.53484 13.7678 6.99929 12.3034L8.05994 11.2427C8.35289 10.9498 8.35289 10.4749 8.05994 10.182C7.76707 9.88911 7.29217 9.88911 6.99929 10.182L5.93864 11.2427C5.05997 12.1213 3.63535 12.1213 2.75667 11.2427ZM9.65099 5.40905C9.94387 5.11616 9.94387 4.64128 9.65099 4.34839C9.35804 4.0555 8.88322 4.0555 8.59027 4.34839L4.34766 8.59101C4.05476 8.88389 4.05476 9.35879 4.34766 9.65166C4.64055 9.94461 5.11543 9.94461 5.40832 9.65166L9.65099 5.40905Z" fill="#1CABC4"/>
</svg>
