<?xml version="1.0" encoding="utf-8"?>
<!-- Generator: Adobe Illustrator 27.2.0, SVG Export Plug-In . SVG Version: 6.00 Build 0)  -->
<svg version="1.1" id="Слой_1" xmlns="http://www.w3.org/2000/svg" xmlns:xlink="http://www.w3.org/1999/xlink" x="0px" y="0px"
	 viewBox="0 0 512 512" style="enable-background:new 0 0 512 512;" xml:space="preserve">
<style type="text/css">
	.st0{fill:#FFFFFF;}
</style>
<g>
	<path class="st0" d="M298.7,405.3c-11.8,0-21.3,9.6-21.3,21.3c0,11.8,9.6,21.3,21.3,21.3h106.7c23.6,0,42.7-19.1,42.7-42.7V106.7
		c0-23.6-19.1-42.7-42.7-42.7H298.7c-11.8,0-21.3,9.6-21.3,21.3c0,11.8,9.6,21.3,21.3,21.3h106.7v298.7H298.7z"/>
	<path class="st0" d="M335.2,270.9c2-2,3.5-4.3,4.5-6.8c1-2.5,1.6-5.2,1.6-8.1V256v-0.1c0-5.4-2.1-10.9-6.2-15l-85.3-85.3
		c-8.3-8.3-21.8-8.3-30.2,0c-8.3,8.3-8.3,21.8,0,30.2l48.9,48.9H64c-11.8,0-21.3,9.6-21.3,21.3s9.6,21.3,21.3,21.3h204.5l-48.9,48.9
		c-8.3,8.3-8.3,21.8,0,30.2c8.3,8.3,21.8,8.3,30.2,0l85.3-85.3L335.2,270.9z"/>
</g>
</svg>
