<svg width="37" height="38" viewBox="0 0 37 38" fill="none" xmlns="http://www.w3.org/2000/svg">
<rect y="1" width="37" height="37" rx="18.5" fill="#F2F3F7"/>
<path d="M25.5894 21.6085H18.5166C18.1386 20.5249 17.1222 19.7437 15.9042 19.7437C14.6862 19.7437 13.6782 20.5249 13.3002 21.6085H12.057C11.595 21.6085 11.217 21.9865 11.217 22.4485C11.217 22.9105 11.595 23.2885 12.057 23.2885H13.2583C13.5943 24.4477 14.6443 25.2961 15.9127 25.2961C17.1811 25.2961 18.2226 24.4477 18.5586 23.2885H25.5894C26.0514 23.2885 26.4294 22.9105 26.4294 22.4485C26.4294 21.9865 26.0514 21.6085 25.5894 21.6085ZM15.9127 23.6161C15.3079 23.6161 14.8206 23.1289 14.8206 22.5157C14.8206 21.9025 15.3079 21.4237 15.9127 21.4237C16.5175 21.4237 17.0046 21.9109 17.0046 22.5241C17.0046 23.1373 16.5175 23.6161 15.9127 23.6161Z" fill="#000026"/>
<path d="M12.0067 16.5769H18.0631C18.4244 17.7949 19.5331 18.6853 20.8687 18.6853C22.2043 18.6853 23.3047 17.7949 23.6743 16.5769H25.5391C26.0011 16.5769 26.3791 16.1989 26.3791 15.7369C26.3791 15.2749 26.0011 14.8969 25.5391 14.8969H23.6743C23.3131 13.6873 22.1959 12.7969 20.8687 12.7969C19.5415 12.7969 18.4327 13.6873 18.0715 14.8969H12.0067C11.5447 14.8969 11.1667 15.2749 11.1667 15.7369C11.1667 16.1989 11.5447 16.5769 12.0067 16.5769ZM20.8687 14.4769C21.5659 14.4769 22.1287 15.0397 22.1287 15.7453C22.1287 16.4509 21.5659 17.0053 20.8687 17.0053C20.1715 17.0053 19.6087 16.4425 19.6087 15.7369C19.6087 15.0313 20.1715 14.4769 20.8687 14.4769Z" fill="#000026"/>
<circle cx="31" cy="6.5" r="5.5" fill="#F14635" stroke="white"/>
</svg>
