<svg width="37" height="37" viewBox="0 0 37 37" fill="none" xmlns="http://www.w3.org/2000/svg">
<rect width="37" height="37" rx="18.5" fill="#F2F3F7"/>
<path d="M17.572 9.68994C13.2331 9.68994 9.69873 13.2243 9.69873 17.5632C9.69873 21.9021 13.2331 25.4434 17.572 25.4434C19.4253 25.4434 21.1297 24.7939 22.4768 23.7156L25.7563 26.9934C25.9219 27.1521 26.1429 27.2396 26.3721 27.2372C26.6014 27.2349 26.8206 27.1429 26.9828 26.9809C27.1451 26.8189 27.2374 26.5998 27.24 26.3706C27.2427 26.1414 27.1555 25.9202 26.9971 25.7545L23.7175 22.4749C24.7968 21.1258 25.447 19.4187 25.447 17.5632C25.447 13.2243 21.9109 9.68994 17.572 9.68994ZM17.572 11.44C20.9651 11.44 23.6953 14.1701 23.6953 17.5632C23.6953 20.9563 20.9651 23.6934 17.572 23.6934C14.1789 23.6934 11.4487 20.9563 11.4487 17.5632C11.4487 14.1701 14.1789 11.44 17.572 11.44Z" fill="#000026"/>
</svg>
