<svg width="25" height="25" viewBox="0 0 25 25" fill="none" xmlns="http://www.w3.org/2000/svg">
<path fill-rule="evenodd" clip-rule="evenodd" d="M4.65527 0C4.7363 0 4.80253 0.0634049 4.807 0.143294L4.80724 0.151915V1.38653C4.80724 1.46754 4.74381 1.53374 4.66389 1.53821L4.65527 1.53845L1.53863 1.53842L1.53864 4.65482C1.53864 4.73294 1.47966 4.79728 1.40378 4.80578L1.39528 4.8065L1.38666 4.80674H0.151976C0.0709363 4.80674 0.00471145 4.74333 0.00024058 4.66345L0 4.65482V1.39175C0 0.640554 0.595809 0.0267494 1.34343 0.000841711L1.36613 0.000237048L1.39191 0H4.65527ZM11.4195 3.26793C11.5459 3.26793 11.6491 3.3678 11.6543 3.49296L11.6545 3.50289V11.4193C11.6545 11.5458 11.5546 11.6489 11.4294 11.6541L11.4195 11.6543H3.50243C3.37594 11.6543 3.27279 11.5544 3.26759 11.4293L3.26738 11.4193V4.71004C3.26738 3.91833 3.88547 3.28079 4.6676 3.26812L4.69135 3.26793H11.4195ZM11.4195 12.9173C11.5413 12.9173 11.6421 13.0101 11.6535 13.1315L11.6543 13.1417L11.6545 13.1523V14.4558H4.806V19.7652H10.1158L10.1159 15.7187H11.6545V21.0687C11.6545 21.1904 11.5617 21.2913 11.4403 21.3027L11.4301 21.3034L11.4195 21.3037H4.69135C3.91464 21.3037 3.29254 20.6875 3.26812 19.9085L3.26756 19.8848L3.26738 19.8616V13.1523C3.26738 13.0305 3.36023 12.9298 3.48163 12.9183L3.4918 12.9176L3.50243 12.9173H11.4195ZM17.181 19.766V15.5639H15.6424V18.3653H12.9185V21.0695L12.9187 21.0795C12.9239 21.2046 13.0271 21.3045 13.1536 21.3045H14.4572V19.9038H17.121V21.3045H19.8817L19.9054 21.3043C20.6876 21.2916 21.3056 20.6541 21.3056 19.8624V16.9646H18.3662V18.5031L19.767 18.503V19.766H17.181ZM1.38666 19.7652C1.4677 19.7652 1.53393 19.8286 1.5384 19.9085L1.53864 19.9171L1.53863 23.0335L4.57744 23.0335C4.65559 23.0335 4.71996 23.0925 4.72846 23.1683L4.72918 23.1768L4.72942 23.1854V24.42C4.72942 24.5011 4.66599 24.5673 4.58606 24.5717L4.57744 24.572H1.39191C0.640618 24.572 0.0267515 23.9762 0.000841779 23.2287L0.000237068 23.206L0 23.1802V19.9171C0 19.8361 0.0634304 19.7699 0.143352 19.7654L0.151976 19.7652H1.38666ZM24.4227 19.7652C24.5038 19.7652 24.57 19.8286 24.5745 19.9085L24.5747 19.9171V23.1802C24.5747 23.9314 23.9789 24.5452 23.2313 24.5711L23.2086 24.5717L23.1828 24.572H19.9195C19.8384 24.572 19.7722 24.5086 19.7677 24.4287L19.7675 24.42V23.1854C19.7675 23.1044 19.8309 23.0382 19.9108 23.0337L19.9195 23.0335L23.036 23.0335L23.0361 19.9171C23.0361 19.839 23.0951 19.7747 23.1709 19.7661L23.1794 19.7654L23.188 19.7652H24.4227ZM9.08877 15.4856V18.7359H5.83804V15.4856H9.08877ZM17.1031 14.4558V12.9173H13.1536L13.1436 12.9175C13.0184 12.9227 12.9185 13.0258 12.9185 13.1523V17.1016H14.4572V14.4558H17.1031ZM21.3059 13.1424C21.3007 13.0172 21.1975 12.9173 21.071 12.9173H19.7675L19.7674 14.318H18.3666V15.8565H19.9052V14.4558H21.3061V13.1523L21.3059 13.1424ZM21.3049 4.66314C21.2805 3.88415 20.6584 3.26793 19.8817 3.26793H13.1536L13.1429 3.26819L13.1327 3.26893C13.0114 3.28035 12.9185 3.38114 12.9185 3.50289V11.4193L12.9188 11.43L12.9195 11.4401C12.9309 11.5615 13.0318 11.6543 13.1536 11.6543H14.4572V4.80635H19.767V10.1158L18.5218 10.1158V11.6543H21.0706L21.0812 11.654L21.0914 11.6533C21.2128 11.6419 21.3056 11.5411 21.3056 11.4193V4.71004L21.3055 4.68679L21.3049 4.66314ZM17.2584 10.1158V11.6543H15.7198V10.1158H17.2584ZM4.80707 4.80631H10.1169V10.1157H4.80707V4.80631ZM9.08877 5.83583V9.08623H5.83804V5.83583H9.08877ZM18.7399 9.08623V5.83583H15.4892V9.08623H18.7399ZM24.5739 1.34328C24.5479 0.59575 23.9341 0 23.1828 0H19.9195L19.9108 0.000240483C19.8309 0.00470954 19.7675 0.0709078 19.7675 0.151915V1.38653L19.7677 1.39516L19.7684 1.40365C19.7769 1.47949 19.8413 1.53845 19.9195 1.53845L23.036 1.53842L23.0361 4.65482L23.0363 4.66345C23.0408 4.74333 23.107 4.80674 23.188 4.80674H24.4227L24.4314 4.8065C24.5113 4.80203 24.5747 4.73583 24.5747 4.65482V1.39175L24.5745 1.36598L24.5739 1.34328Z" fill="white"/>
</svg>
