<svg width="19" height="18" viewBox="0 0 19 18" fill="none" xmlns="http://www.w3.org/2000/svg">
<path d="M8.57202 0.18988C4.23314 0.18988 0.69873 3.72429 0.69873 8.06318C0.69873 12.402 4.23314 15.9434 8.57202 15.9434C10.4253 15.9434 12.1297 15.2939 13.4768 14.2155L16.7563 17.4933C16.9219 17.652 17.1429 17.7395 17.3721 17.7372C17.6014 17.7348 17.8206 17.6428 17.9828 17.4808C18.1451 17.3188 18.2374 17.0998 18.24 16.8705C18.2427 16.6413 18.1555 16.4201 17.9971 16.2544L14.7175 12.9749C15.7968 11.6257 16.447 9.91859 16.447 8.06318C16.447 3.72429 12.9109 0.18988 8.57202 0.18988ZM8.57202 1.93991C11.9651 1.93991 14.6953 4.67008 14.6953 8.06318C14.6953 11.4563 11.9651 14.1933 8.57202 14.1933C5.17891 14.1933 2.44873 11.4563 2.44873 8.06318C2.44873 4.67008 5.17891 1.93991 8.57202 1.93991Z" fill="#1CABC4"/>
</svg>
