<svg xmlns="http://www.w3.org/2000/svg" fill="none" viewBox="3.62 3.57 18.75 18.88">
<path d="M21.1931 11.3612L6.14734 3.83789C5.232 3.38069 4.38081 3.51354 3.92635 4.12468C3.69912 4.42979 3.48288 4.97771 3.74585 5.85639L5.44274 11.5078C5.68096 12.3022 5.68096 13.6986 5.44274 14.493L3.74585 20.1444C3.48288 21.0231 3.6982 21.5719 3.92543 21.877C4.19664 22.2398 4.61262 22.4405 5.0964 22.4405C5.4235 22.4405 5.77717 22.347 6.14642 22.1629L21.1931 14.6396C21.9444 14.2639 22.3759 13.6656 22.3759 13.0004C22.3759 12.3352 21.9453 11.7369 21.1931 11.3612ZM5.58384 20.3954L7.19827 15.0189C7.2954 14.6954 7.36137 14.3161 7.40351 13.9166H15.0936C15.6003 13.9166 16.0098 13.5071 16.0098 13.0004C16.0098 12.4937 15.6003 12.0841 15.0936 12.0841H7.40351C7.36137 11.6846 7.29631 11.3053 7.19827 10.9819L5.58384 5.60534L20.3739 13.0004L5.58384 20.3954Z" fill="white"/>
</svg>