<svg width="20" height="12" viewBox="0 0 20 12" fill="none" xmlns="http://www.w3.org/2000/svg">
<path fill-rule="evenodd" clip-rule="evenodd" d="M0 10C0 4.4772 4.47715 0 10 0C15.5228 0 20 4.4772 20 10V11C20 11.5523 19.5523 12 19 12C18.4477 12 18 11.5523 18 11V10C18 5.5817 14.4183 2 10 2C5.58172 2 2 5.5817 2 10V11C2 11.5523 1.55228 12 1 12C0.44772 12 0 11.5523 0 11V10ZM13.6 5.2C14.0418 5.5314 14.1314 6.1582 13.8 6.6L11.8396 9.2139C11.9428 9.4552 12 9.7209 12 10C12 11.1046 11.1046 12 10 12C8.8954 12 8 11.1046 8 10C8 8.8954 8.8954 8 10 8C10.081 8 10.1609 8.0048 10.2394 8.0142L12.2 5.4C12.5314 4.9582 13.1582 4.8686 13.6 5.2Z" fill="#1CABC4"/>
</svg>
