<svg width="25" height="25" viewBox="0 0 25 25" fill="none" xmlns="http://www.w3.org/2000/svg">
<g clip-path="url(#clip0_2113_1627)">
<rect width="25" height="25" rx="12.5" fill="white"/>
<path d="M12.4999 25C19.4035 25 24.9999 19.4036 24.9999 12.5001C24.9999 5.59654 19.4035 0.00012207 12.4999 0.00012207C5.59641 0.00012207 0 5.59654 0 12.5001C0 19.4036 5.59641 25 12.4999 25Z" fill="white"/>
<path d="M6.85154 12.2743L16.8949 8.40189C17.3611 8.23348 17.7682 8.5156 17.6172 9.22046L17.618 9.21959L15.908 17.276C15.7812 17.8472 15.4418 17.9861 14.967 17.717L12.3628 15.7977L11.1067 17.0078C10.9679 17.1467 10.8507 17.2639 10.5816 17.2639L10.7665 14.6137L15.5929 10.2534C15.8029 10.0686 15.546 9.96439 15.2691 10.1484L9.30466 13.9036L6.73348 13.1015C6.17532 12.9245 6.16317 12.5434 6.85154 12.2743Z" fill="#000026"/>
</g>
<defs>
<clipPath id="clip0_2113_1627">
<rect width="25" height="25" rx="12.5" fill="white"/>
</clipPath>
</defs>
</svg>
