<svg xmlns="http://www.w3.org/2000/svg" fill="none" viewBox="2 2 20 19">
<path d="M19 21H5C3.3 21 2 19.7 2 18V9C2 7.3 3.3 6 5 6H19C20.7 6 22 7.3 22 9V18C22 19.7 20.7 21 19 21ZM5 8C4.4 8 4 8.4 4 9V18C4 18.6 4.4 19 5 19H19C19.6 19 20 18.6 20 18V9C20 8.4 19.6 8 19 8H5Z" fill="#1CABC4"/>
<path d="M12 8C11.7 8 11.5 7.9 11.3 7.7L7.3 3.7C6.9 3.3 6.9 2.7 7.3 2.3C7.7 1.9 8.3 1.9 8.7 2.3L12 5.6L15.3 2.3C15.7 1.9 16.3 1.9 16.7 2.3C17.1 2.7 17.1 3.3 16.7 3.7L12.7 7.7C12.5 7.9 12.3 8 12 8Z" fill="#1CABC4"/>
</svg>