<?xml version="1.0" encoding="utf-8"?>
<!-- Generator: Adobe Illustrator 27.2.0, SVG Export Plug-In . SVG Version: 6.00 Build 0)  -->
<svg version="1.1" id="Layer_1" xmlns="http://www.w3.org/2000/svg" xmlns:xlink="http://www.w3.org/1999/xlink" x="0px" y="0px"
	 viewBox="0 0 512 512" style="enable-background:new 0 0 512 512;" xml:space="preserve">
<style type="text/css">
	.st0{fill:#00ACC4;}
</style>
<path class="st0" d="M437,75c-99.9-100.1-262-100.2-362-0.3s-100.2,262-0.3,362c0.1,0.1,0.2,0.2,0.3,0.3
	c99.9,100.1,262,100.2,362,0.4s100.2-262,0.4-362C437.3,75.2,437.1,75.1,437,75L437,75z M479.4,240H371.8
	c-1.6-59.8-12.2-115.7-30.3-158.9c-5.7-14-13-27.4-21.6-39.8C407.4,67.4,472.7,145.7,479.4,240z M256,478.6
	c-38.1,0-80.4-84-83.8-206.6h167.5C336.4,394.5,294.1,478.6,256,478.6z M172.2,240c3.4-122.5,45.7-206.6,83.8-206.6
	s80.4,84,83.8,206.6H172.2z M192.1,41.3c-8.6,12.4-15.9,25.8-21.6,39.8c-18.1,43.1-28.7,99.1-30.3,158.9H32.6
	C39.3,145.7,104.6,67.4,192.1,41.3L192.1,41.3z M32.6,272h107.6c1.6,59.8,12.2,115.7,30.3,158.9c5.7,14,13,27.4,21.6,39.8
	C104.6,444.6,39.3,366.3,32.6,272L32.6,272z M319.9,470.7c8.6-12.4,15.9-25.8,21.6-39.8c18.1-43.1,28.7-99.1,30.3-158.9h107.6
	C472.7,366.3,407.4,444.6,319.9,470.7z"/>
</svg>
