<svg width="117" height="36" viewBox="0 0 117 36" fill="none" xmlns="http://www.w3.org/2000/svg">
<path d="M19.5941 14.4238L23 14.4418V35.3997H19.4394L19.0107 32.8579C18.024 33.832 16.8633 34.5866 15.528 35.1245C14.1918 35.6614 12.7519 35.9301 11.2079 35.9301C9.1067 35.9301 7.19894 35.4529 5.48688 34.4982C3.77425 33.5436 2.43226 32.2218 1.45919 30.5351C0.486395 28.8467 0 26.972 0 24.9116C0 22.8372 0.486395 20.9634 1.45919 19.2882C2.43226 17.613 3.77425 16.3005 5.48688 15.3526C7.19894 14.4044 9.1067 13.9301 11.2079 13.9301C12.7646 13.9301 14.2172 14.2018 15.5667 14.7454C16.9156 15.2901 18.0832 16.0605 19.0687 17.0596L19.5941 14.4238ZM6.49893 29.8328C7.83544 31.1411 9.51487 31.7958 11.5387 31.7958C13.5619 31.7958 15.2387 31.1411 16.5689 29.8328C17.8988 28.5248 18.5633 26.8836 18.5633 24.9116C18.5633 22.9388 17.8988 21.3021 16.5689 19.9989C15.2387 18.6971 13.5619 18.0449 11.5387 18.0449C9.51487 18.0449 7.83544 18.6999 6.49893 20.0087C5.16301 21.317 4.49475 22.9511 4.49475 24.9116C4.49475 26.8836 5.16301 28.5248 6.49893 29.8328Z" fill="white"/>
<path d="M29 35.9301H33V6.93005H29V35.9301Z" fill="white"/>
<path d="M63.5505 13.9301C65.7603 13.9301 67.5546 14.6721 68.9326 16.1579C70.3106 17.6436 71 19.5497 71 21.8761V34.9301H66.675V22.917C66.675 21.258 66.3191 19.9764 65.6085 19.0729C64.8965 18.1692 63.8866 17.7177 62.5787 17.7177C61.1691 17.7177 59.9901 18.2813 59.0446 19.4076C58.0977 20.5341 57.6245 21.9634 57.6245 23.6965V34.9301H53.3942V22.917C53.3942 21.258 53.0425 19.9764 52.337 19.0729C51.6323 18.1692 50.6187 17.7177 49.2979 17.7177C47.8879 17.7177 46.7067 18.2813 45.7541 19.4076C44.8016 20.5341 44.325 21.9634 44.325 23.6965V34.9301H40V14.3936H43.0674L43.8106 17.0492C44.6108 16.0711 45.5859 15.307 46.735 14.7561C47.8845 14.2061 49.0949 13.9301 50.3649 13.9301C51.7748 13.9301 53.029 14.2493 54.128 14.8861C55.2269 15.5235 56.0814 16.406 56.6914 17.5318C57.4653 16.4182 58.4564 15.5398 59.6636 14.8958C60.8697 14.2523 62.1657 13.9301 63.5505 13.9301Z" fill="white"/>
<path d="M94.5941 14.4238L98 14.4418V35.3997H94.4385L94.0107 32.8579C93.0243 33.832 91.8636 34.5866 90.528 35.1245C89.1918 35.6614 87.7522 35.9301 86.2079 35.9301C84.1067 35.9301 82.1989 35.4529 80.4872 34.4982C78.7745 33.5436 77.432 32.2218 76.4595 30.5351C75.4867 28.8467 75 26.972 75 24.9116C75 22.8372 75.4867 20.9634 76.4595 19.2882C77.432 17.613 78.7745 16.3005 80.4872 15.3526C82.1989 14.4044 84.1067 13.9301 86.2079 13.9301C87.7649 13.9301 89.2175 14.2018 90.5664 14.7454C91.9156 15.2901 93.0835 16.0605 94.069 17.0596L94.5941 14.4238ZM81.4992 29.8328C82.8357 31.1411 84.5149 31.7958 86.539 31.7958C88.5622 31.7958 90.2387 31.1411 91.5692 29.8328C92.8985 28.5248 93.5633 26.8836 93.5633 24.9116C93.5633 22.9388 92.8985 21.3021 91.5692 19.9989C90.2387 18.6971 88.5622 18.0449 86.539 18.0449C84.5149 18.0449 82.8357 18.6999 81.4992 20.0087C80.1627 21.317 79.4948 22.9511 79.4948 24.9116C79.4948 26.8836 80.1627 28.5248 81.4992 29.8328Z" fill="white"/>
<path d="M14.0612 0.930054C13.7359 3.73325 14.7226 6.13548 16.6617 8.18651C18.2316 9.84546 20.1976 10.8409 22.6004 10.9285C22.6845 10.9316 22.7685 10.9291 22.8833 10.9291C23.0742 9.95113 23.0332 8.99596 22.7436 8.07027C21.5833 4.35779 18.9837 2.05373 15.0572 1.07465C14.842 1.02043 14.623 0.978437 14.4061 0.930054H14.0612Z" fill="#9BC32C"/>
<path d="M102.016 6.82047H100.235C100.1 6.82047 100 6.70537 100 6.5764V5.17523C100 5.04599 100.1 4.93005 100.235 4.93005H105.764C105.9 4.93005 106 5.04599 106 5.17523V6.5764C106 6.70537 105.9 6.82047 105.764 6.82047H103.984V13.6857C103.984 13.8152 103.872 13.9301 103.745 13.9301H102.251C102.127 13.9301 102.016 13.8152 102.016 13.6857V6.82047Z" fill="white"/>
<path d="M108.025 5.26015C107.948 5.09469 108.055 4.93005 108.255 4.93005H110.029C110.136 4.93005 110.23 5.00553 110.256 5.07035L112.461 9.69711H112.541L114.743 5.07035C114.772 5.00553 114.863 4.93005 114.973 4.93005H116.746C116.895 4.93005 116.992 5.01948 117 5.13298V5.16579C116.998 5.19615 116.989 5.22815 116.974 5.26015L112.781 13.7914C112.742 13.8669 112.661 13.9301 112.554 13.9301H112.422C112.315 13.9301 112.234 13.8669 112.195 13.7914L108.025 5.26015Z" fill="white"/>
</svg>
