<svg width="140" height="42" viewBox="0 0 140 42" fill="none" xmlns="http://www.w3.org/2000/svg">
<g clip-path="url(#clip0_1_511)">
<path d="M118.057 11.1497H113.948C113.667 11.1497 113.413 10.8956 113.413 10.6145V8.64413C113.413 8.36272 113.667 8.10897 113.948 8.10897H118.057V3.97266C118.057 3.69652 118.3 3.47445 118.576 3.46628H120.577C120.852 3.47445 121.097 3.69652 121.097 3.97266V8.10897H125.234C125.509 8.10897 125.731 8.35181 125.74 8.62575V10.6329C125.731 10.9066 125.509 11.1497 125.234 11.1497H121.097V15.2574C121.097 15.5394 120.843 15.7649 120.562 15.7649H118.592C118.309 15.7649 118.057 15.5394 118.057 15.2574V11.1497Z" fill="#03A9C4"/>
<path d="M7.4398 33.8396C8.96858 35.3769 10.8918 36.1446 13.2082 36.1446C15.5239 36.1446 17.4425 35.3769 18.9655 33.8396C20.4875 32.3024 21.2476 30.3754 21.2476 28.0606C21.2476 25.7443 20.4875 23.821 18.9655 22.2904C17.4425 20.7618 15.5239 19.9968 13.2082 19.9968C10.8918 19.9968 8.96858 20.7655 7.4398 22.3027C5.91009 23.8391 5.14537 25.7584 5.14537 28.0606C5.14537 30.3754 5.91009 32.3024 7.4398 33.8396ZM22.4288 15.7435L26.3273 15.7649V40.377H22.2514L21.7607 37.392C20.6322 38.5358 19.3026 39.4224 17.7743 40.0531C16.2446 40.6847 14.5964 41 12.8293 41C10.4237 41 8.24123 40.4391 6.28151 39.3181C4.32129 38.1982 2.78443 36.6453 1.67067 34.6648C0.557252 32.6823 0.00012207 30.4807 0.00012207 28.0606C0.00012207 25.6251 0.557252 23.4246 1.67067 21.4563C2.78443 19.4895 4.32129 17.9489 6.28151 16.8341C8.24123 15.7208 10.4237 15.1637 12.8293 15.1637C14.6117 15.1637 16.2736 15.4833 17.8184 16.1225C19.3624 16.7612 20.6995 17.6668 21.8274 18.8385L22.4288 15.7435Z" fill="#03A9C4"/>
<path d="M33.5426 6.94566H38.5981V40.3991H33.5426V6.94566Z" fill="#03A9C4"/>
<path d="M73.3218 15.2087C75.9061 15.2087 78.0019 16.0997 79.6131 17.8821C81.2248 19.6631 82.0308 21.9495 82.0308 24.7418V40.3998H76.9747V25.9893C76.9747 23.9983 76.559 22.4625 75.7282 21.3781C74.8955 20.2946 73.7154 19.7518 72.1857 19.7518C70.538 19.7518 69.1606 20.4284 68.0548 21.7792C66.9475 23.1316 66.3957 24.8452 66.3957 26.9244V40.3998H61.4506V25.9893C61.4506 23.9983 61.039 22.4625 60.2149 21.3781C59.3908 20.2946 58.2058 19.7518 56.6624 19.7518C55.0142 19.7518 53.6335 20.4284 52.5187 21.7792C51.4054 23.1316 50.8492 24.8452 50.8492 26.9244V40.3998H45.7936V15.7649H49.3787L50.2479 18.9504C51.1825 17.7777 52.3224 16.8607 53.6671 16.1992C55.0096 15.5396 56.4248 15.2087 57.909 15.2087C59.5582 15.2087 61.0238 15.5914 62.3084 16.3553C63.5924 17.1209 64.5914 18.1789 65.3037 19.5289C66.2094 18.1931 67.3668 17.1395 68.7779 16.3667C70.1886 15.5947 71.7031 15.2087 73.3218 15.2087Z" fill="#03A9C4"/>
<path d="M94.5255 33.8396C96.0543 35.3769 97.9774 36.1446 100.295 36.1446C102.61 36.1446 104.529 35.3769 106.052 33.8396C107.573 32.3024 108.333 30.3754 108.333 28.0606C108.333 25.7443 107.573 23.821 106.052 22.2904C104.529 20.7618 102.61 19.9968 100.295 19.9968C97.9774 19.9968 96.0543 20.7655 94.5255 22.3027C92.996 23.8391 92.2319 25.7584 92.2319 28.0606C92.2319 30.3754 92.996 32.3024 94.5255 33.8396ZM109.514 15.7435L113.413 15.7649V40.377H109.337L108.846 37.392C107.718 38.5358 106.39 39.4224 104.86 40.0531C103.33 40.6847 101.682 41 99.9149 41C97.5108 41 95.3268 40.4391 93.3671 39.3181C91.4069 38.1982 89.8706 36.6453 88.7568 34.6648C87.6429 32.6823 87.0858 30.4807 87.0858 28.0606C87.0858 25.6251 87.6429 23.4246 88.7568 21.4563C89.8706 19.4895 91.4069 17.9489 93.3671 16.8341C95.3268 15.7208 97.5108 15.1637 99.9149 15.1637C101.697 15.1637 103.359 15.4833 104.904 16.1225C106.448 16.7612 107.785 17.6668 108.913 18.8385L109.514 15.7435Z" fill="#03A9C4"/>
<path d="M17.0981 1C16.7619 4.04784 17.7809 6.65921 19.7822 8.88867C21.4841 10.7825 23.6391 11.8697 26.2063 11.8697C26.4035 10.8072 26.3604 9.76912 26.0621 8.76163C24.8634 4.7264 22.18 2.22232 18.1269 1.15778C17.7352 1.05441 17.4996 1 17.0981 1Z" fill="#9AC221"/>
</g>
<defs>
<clipPath id="clip0_1_511">
<rect width="139.995" height="40.5936" fill="white" transform="translate(0.00268555 0.703125)"/>
</clipPath>
</defs>
</svg>
