<svg width="144" height="39" viewBox="0 0 144 39" fill="none" xmlns="http://www.w3.org/2000/svg">
<rect width="144" height="39" rx="8" fill="#000026"/>
<path d="M21.9671 25.0944C20.4317 25.1475 15.8129 25.3086 15.8129 25.3086C17.1934 27.6799 18.7823 27.1379 18.7823 27.1379C19.6418 26.8957 21.4257 25.6489 22.0137 25.2272C22.0507 25.2004 22.0426 25.1524 22.0324 25.1331C22.0203 25.1088 21.9903 25.0944 21.969 25.0944H21.9671ZM26.0307 25.0944C26.0096 25.0944 25.9796 25.1088 25.9676 25.1331C25.9574 25.1523 25.9493 25.2004 25.9863 25.2272C26.5742 25.649 28.3581 26.8958 29.2176 27.1379C29.2176 27.1379 30.8066 27.6798 32.1867 25.3086C32.1867 25.3086 27.5683 25.1476 26.0325 25.0944H26.0307ZM14.3136 22.4888C14.9901 23.9678 16.2919 24.3818 16.2919 24.3818C16.8771 24.6062 17.3506 24.6251 17.3506 24.6251C17.4428 24.6419 21.1044 24.638 22.0711 24.6365C22.1036 24.6362 22.1279 24.6134 22.1348 24.5879C22.1483 24.5398 22.1234 24.5125 22.1036 24.4995C19.4025 22.6792 14.1772 19.8736 14.1772 19.8736C13.7103 21.2826 14.3136 22.4888 14.3136 22.4888ZM25.8964 24.4995C25.8766 24.5125 25.8516 24.5398 25.8649 24.5879C25.8721 24.6134 25.8964 24.6362 25.9285 24.6365C26.8959 24.638 30.5572 24.6419 30.6494 24.6251C30.6494 24.6251 31.1228 24.6062 31.7078 24.3818C31.7078 24.3818 33.0098 23.9678 33.6864 22.4888C33.6864 22.4888 34.2896 21.2826 33.8228 19.8736C33.8227 19.8736 28.5975 22.6793 25.8964 24.4995ZM15.4402 18.0918C15.4912 19.3308 16.452 20.1026 16.452 20.1026C17.9889 21.5683 21.637 23.4475 22.5142 23.8831C22.5503 23.9008 22.5851 23.89 22.6043 23.8741C22.632 23.8507 22.6275 23.8056 22.6154 23.7789C20.2742 18.6684 17.0618 14.7776 17.0618 14.7776C17.0618 14.7776 15.3293 16.3704 15.4402 18.0918ZM25.3845 23.7788C25.3724 23.8056 25.3679 23.8507 25.3956 23.874C25.4145 23.89 25.4497 23.9008 25.4854 23.883C26.3629 23.4474 30.011 21.5683 31.5476 20.1025C31.5476 20.1025 32.5087 19.3307 32.5598 18.0917C32.6703 16.3703 30.9381 14.7775 30.9381 14.7775C30.9381 14.7775 27.726 18.6683 25.3845 23.7788ZM21.5667 12.3125C19.9372 12.7091 19.5355 14.2085 19.5355 14.2085C19.2522 14.9959 19.5454 16.1577 19.5454 16.1577C20.0859 18.5586 22.7492 22.5068 23.3329 23.3507C23.3548 23.3816 23.3867 23.3937 23.42 23.3847C23.441 23.3793 23.4663 23.3627 23.4708 23.3162C24.3559 14.4684 22.5347 12.1233 22.5347 12.1233C22.036 12.1936 21.5667 12.3125 21.5667 12.3125ZM24.5292 23.3162C24.5337 23.3627 24.5586 23.3793 24.58 23.3847C24.613 23.3937 24.6448 23.3817 24.6668 23.3507C25.2508 22.5068 27.9141 18.5586 28.4545 16.1577C28.4545 16.1577 28.748 14.9959 28.4644 14.2085C28.4644 14.2085 28.0627 12.7091 26.4332 12.3125C26.4332 12.3125 25.964 12.1936 25.4653 12.1233C25.4653 12.1233 23.6438 14.4684 24.5292 23.3162Z" fill="white"/>
<path d="M49.2 10.42C49.2 10.9733 49.13 11.4767 48.99 11.93C48.85 12.3767 48.64 12.7633 48.36 13.09C48.0867 13.4167 47.7433 13.6667 47.33 13.84C46.9233 14.0133 46.45 14.1 45.91 14.1C45.35 14.1 44.8633 14.0133 44.45 13.84C44.0367 13.66 43.6933 13.41 43.42 13.09C43.1467 12.7633 42.9433 12.3733 42.81 11.92C42.6767 11.4667 42.61 10.9633 42.61 10.41C42.61 9.67667 42.73 9.03667 42.97 8.49C43.21 7.94333 43.5733 7.51667 44.06 7.21C44.5533 6.90333 45.1733 6.75 45.92 6.75C46.6333 6.75 47.2333 6.90333 47.72 7.21C48.2067 7.51 48.5733 7.93667 48.82 8.49C49.0733 9.03667 49.2 9.68 49.2 10.42ZM43.56 10.42C43.56 11.02 43.6433 11.5367 43.81 11.97C43.9767 12.4033 44.2333 12.7367 44.58 12.97C44.9333 13.2033 45.3767 13.32 45.91 13.32C46.45 13.32 46.89 13.2033 47.23 12.97C47.5767 12.7367 47.8333 12.4033 48 11.97C48.1667 11.5367 48.25 11.02 48.25 10.42C48.25 9.52 48.0633 8.81667 47.69 8.31C47.3167 7.79667 46.7267 7.54 45.92 7.54C45.38 7.54 44.9333 7.65667 44.58 7.89C44.2333 8.11667 43.9767 8.44667 43.81 8.88C43.6433 9.30667 43.56 9.82 43.56 10.42ZM54.3625 9.38H52.6125V14H51.7425V9.38H50.0125V8.64H54.3625V9.38ZM58.5884 8.64H59.5484L57.2584 11.22L59.7384 14H58.7184L56.2984 11.28V14H55.4184V8.64H56.2984V11.24L58.5884 8.64ZM63.2613 8.54C63.9213 8.54 64.4513 8.77 64.8513 9.23C65.258 9.69 65.4613 10.3833 65.4613 11.31C65.4613 11.9167 65.368 12.43 65.1813 12.85C65.0013 13.2633 64.7447 13.5767 64.4113 13.79C64.0847 13.9967 63.698 14.1 63.2513 14.1C62.978 14.1 62.7347 14.0633 62.5213 13.99C62.308 13.9167 62.1247 13.8233 61.9713 13.71C61.8247 13.59 61.698 13.46 61.5913 13.32H61.5313C61.5447 13.4333 61.558 13.5767 61.5713 13.75C61.5847 13.9233 61.5913 14.0733 61.5913 14.2V16.4H60.7113V8.64H61.4313L61.5513 9.37H61.5913C61.698 9.21667 61.8247 9.07667 61.9713 8.95C62.1247 8.82333 62.3047 8.72333 62.5113 8.65C62.7247 8.57667 62.9747 8.54 63.2613 8.54ZM63.1013 9.28C62.7413 9.28 62.4513 9.35 62.2313 9.49C62.0113 9.62333 61.8513 9.82667 61.7513 10.1C61.6513 10.3733 61.598 10.72 61.5913 11.14V11.31C61.5913 11.75 61.638 12.1233 61.7313 12.43C61.8247 12.7367 61.9813 12.97 62.2013 13.13C62.428 13.29 62.7347 13.37 63.1213 13.37C63.448 13.37 63.7147 13.28 63.9213 13.1C64.1347 12.92 64.2913 12.6767 64.3913 12.37C64.498 12.0567 64.5513 11.7 64.5513 11.3C64.5513 10.6867 64.4313 10.1967 64.1913 9.83C63.958 9.46333 63.5947 9.28 63.1013 9.28ZM71.5237 11.31C71.5237 11.7567 71.4637 12.1533 71.3437 12.5C71.2303 12.84 71.0637 13.13 70.8437 13.37C70.6303 13.61 70.367 13.7933 70.0537 13.92C69.747 14.04 69.4037 14.1 69.0237 14.1C68.6703 14.1 68.3437 14.04 68.0437 13.92C67.7437 13.7933 67.4837 13.61 67.2637 13.37C67.0437 13.13 66.8703 12.84 66.7437 12.5C66.6237 12.1533 66.5637 11.7567 66.5637 11.31C66.5637 10.7167 66.6637 10.2167 66.8637 9.81C67.0637 9.39667 67.3503 9.08333 67.7237 8.87C68.097 8.65 68.5403 8.54 69.0537 8.54C69.5403 8.54 69.967 8.65 70.3337 8.87C70.707 9.08333 70.997 9.39667 71.2037 9.81C71.417 10.2167 71.5237 10.7167 71.5237 11.31ZM67.4737 11.31C67.4737 11.73 67.527 12.0967 67.6337 12.41C67.747 12.7167 67.9203 12.9533 68.1537 13.12C68.387 13.2867 68.6837 13.37 69.0437 13.37C69.4037 13.37 69.7003 13.2867 69.9337 13.12C70.167 12.9533 70.337 12.7167 70.4437 12.41C70.557 12.0967 70.6137 11.73 70.6137 11.31C70.6137 10.8833 70.557 10.52 70.4437 10.22C70.3303 9.92 70.157 9.69 69.9237 9.53C69.697 9.36333 69.4003 9.28 69.0337 9.28C68.487 9.28 68.0903 9.46 67.8437 9.82C67.597 10.18 67.4737 10.6767 67.4737 11.31ZM77.2584 6.42C77.2317 6.75333 77.1484 7.03333 77.0084 7.26C76.875 7.48667 76.675 7.65667 76.4084 7.77C76.1417 7.88333 75.795 7.94 75.3684 7.94C74.935 7.94 74.585 7.88333 74.3184 7.77C74.0584 7.65667 73.8684 7.49 73.7484 7.27C73.6284 7.04333 73.555 6.76 73.5284 6.42H74.3484C74.3817 6.78 74.475 7.02333 74.6284 7.15C74.7884 7.27 75.0417 7.33 75.3884 7.33C75.695 7.33 75.935 7.26667 76.1084 7.14C76.2884 7.00667 76.395 6.76667 76.4284 6.42H77.2584ZM73.7484 11.91C73.7484 11.97 73.745 12.0567 73.7384 12.17C73.7384 12.2767 73.735 12.3933 73.7284 12.52C73.7217 12.64 73.715 12.7567 73.7084 12.87C73.7017 12.9767 73.695 13.0633 73.6884 13.13L76.5584 8.64H77.6384V14H76.8184V10.84C76.8184 10.7333 76.8184 10.5933 76.8184 10.42C76.825 10.2467 76.8317 10.0767 76.8384 9.91C76.845 9.73667 76.8517 9.60667 76.8584 9.52L74.0084 14H72.9184V8.64H73.7484V11.91ZM83.0441 9.38H81.2941V14H80.4241V9.38H78.6941V8.64H83.0441V9.38ZM86.0723 8.54C86.5323 8.54 86.9257 8.64 87.2523 8.84C87.5857 9.04 87.839 9.32333 88.0123 9.69C88.1923 10.05 88.2823 10.4733 88.2823 10.96V11.49H84.6123C84.6257 12.0967 84.779 12.56 85.0723 12.88C85.3723 13.1933 85.789 13.35 86.3223 13.35C86.6623 13.35 86.9623 13.32 87.2223 13.26C87.489 13.1933 87.7623 13.1 88.0423 12.98V13.75C87.769 13.87 87.499 13.9567 87.2323 14.01C86.9657 14.07 86.649 14.1 86.2823 14.1C85.7757 14.1 85.3257 13.9967 84.9323 13.79C84.5457 13.5833 84.2423 13.2767 84.0223 12.87C83.809 12.4567 83.7023 11.9533 83.7023 11.36C83.7023 10.7733 83.799 10.27 83.9923 9.85C84.1923 9.43 84.469 9.10667 84.8223 8.88C85.1823 8.65333 85.599 8.54 86.0723 8.54ZM86.0623 9.26C85.6423 9.26 85.309 9.39667 85.0623 9.67C84.8223 9.93667 84.679 10.31 84.6323 10.79H87.3623C87.3623 10.4833 87.3157 10.2167 87.2223 9.99C87.129 9.76333 86.9857 9.58667 86.7923 9.46C86.6057 9.32667 86.3623 9.26 86.0623 9.26ZM96.6229 9.99C96.6229 10.3233 96.5229 10.5833 96.3229 10.77C96.1229 10.9567 95.8662 11.0833 95.5529 11.15V11.19C95.8862 11.2367 96.1762 11.3567 96.4229 11.55C96.6696 11.7367 96.7929 12.03 96.7929 12.43C96.7929 12.6567 96.7496 12.8667 96.6629 13.06C96.5829 13.2533 96.4562 13.42 96.2829 13.56C96.1096 13.7 95.8862 13.81 95.6129 13.89C95.3396 13.9633 95.0096 14 94.6229 14H92.3129V8.64H94.6129C94.9929 8.64 95.3329 8.68333 95.6329 8.77C95.9396 8.85 96.1796 8.99 96.3529 9.19C96.5329 9.38333 96.6229 9.65 96.6229 9.99ZM95.8829 12.43C95.8829 12.1233 95.7662 11.9033 95.5329 11.77C95.2996 11.6367 94.9562 11.57 94.5029 11.57H93.1929V13.29H94.5229C94.9629 13.29 95.2996 13.2267 95.5329 13.1C95.7662 12.9667 95.8829 12.7433 95.8829 12.43ZM95.7329 10.1C95.7329 9.84667 95.6396 9.66333 95.4529 9.55C95.2729 9.43 94.9762 9.37 94.5629 9.37H93.1929V10.84H94.4029C94.8362 10.84 95.1662 10.78 95.3929 10.66C95.6196 10.54 95.7329 10.3533 95.7329 10.1Z" fill="white"/>
<path d="M42.064 31L47.024 19.64H48.656L53.616 31H51.664L50.368 28.024H45.28L44 31H42.064ZM47.824 22.168L46 26.36H49.648L47.824 22.168ZM56.6315 34.344H54.8715V23H56.6315V24.072C56.8768 23.7307 57.2288 23.4427 57.6875 23.208C58.1568 22.9627 58.6635 22.84 59.2075 22.84C60.2955 22.84 61.2075 23.2453 61.9435 24.056C62.6902 24.8667 63.0635 25.848 63.0635 27C63.0635 28.152 62.6902 29.1333 61.9435 29.944C61.2075 30.7547 60.2955 31.16 59.2075 31.16C58.6635 31.16 58.1568 31.0427 57.6875 30.808C57.2288 30.5627 56.8768 30.2693 56.6315 29.928V34.344ZM58.8875 29.56C59.5808 29.56 60.1515 29.3147 60.5995 28.824C61.0475 28.3333 61.2715 27.7253 61.2715 27C61.2715 26.2747 61.0475 25.6667 60.5995 25.176C60.1515 24.6853 59.5808 24.44 58.8875 24.44C58.1835 24.44 57.6075 24.6853 57.1595 25.176C56.7115 25.6667 56.4875 26.2747 56.4875 27C56.4875 27.7253 56.7115 28.3333 57.1595 28.824C57.6075 29.3147 58.1835 29.56 58.8875 29.56ZM66.6159 34.344H64.8559V23H66.6159V24.072C66.8612 23.7307 67.2132 23.4427 67.6719 23.208C68.1412 22.9627 68.6479 22.84 69.1919 22.84C70.2799 22.84 71.1919 23.2453 71.9279 24.056C72.6745 24.8667 73.0479 25.848 73.0479 27C73.0479 28.152 72.6745 29.1333 71.9279 29.944C71.1919 30.7547 70.2799 31.16 69.1919 31.16C68.6479 31.16 68.1412 31.0427 67.6719 30.808C67.2132 30.5627 66.8612 30.2693 66.6159 29.928V34.344ZM68.8719 29.56C69.5652 29.56 70.1359 29.3147 70.5839 28.824C71.0319 28.3333 71.2559 27.7253 71.2559 27C71.2559 26.2747 71.0319 25.6667 70.5839 25.176C70.1359 24.6853 69.5652 24.44 68.8719 24.44C68.1679 24.44 67.5919 24.6853 67.1439 25.176C66.6959 25.6667 66.4719 26.2747 66.4719 27C66.4719 27.7253 66.6959 28.3333 67.1439 28.824C67.5919 29.3147 68.1679 29.56 68.8719 29.56ZM80.2643 31.192C78.5683 31.192 77.1549 30.632 76.0243 29.512C74.8936 28.3813 74.3283 26.984 74.3283 25.32C74.3283 23.656 74.8883 22.264 76.0082 21.144C77.1389 20.0133 78.5523 19.448 80.2483 19.448C81.4963 19.448 82.6109 19.784 83.5923 20.456C84.5736 21.128 85.2509 21.976 85.6243 23H83.4963C83.1976 22.4773 82.7549 22.056 82.1683 21.736C81.5923 21.416 80.9523 21.256 80.2483 21.256C79.0749 21.256 78.1096 21.6453 77.3523 22.424C76.5949 23.2027 76.2163 24.168 76.2163 25.32C76.2163 26.472 76.5949 27.4373 77.3523 28.216C78.1096 28.9947 79.0803 29.384 80.2643 29.384C81.2989 29.384 82.1469 29.0853 82.8083 28.488C83.4696 27.8907 83.8643 27.1013 83.9923 26.12H80.1043V24.36H85.9123C86.1149 26.472 85.6616 28.1413 84.5523 29.368C83.4536 30.584 82.0243 31.192 80.2643 31.192ZM91.089 31.16C90.001 31.16 89.0837 30.7547 88.337 29.944C87.601 29.1333 87.233 28.152 87.233 27C87.233 25.848 87.601 24.8667 88.337 24.056C89.0837 23.2453 90.001 22.84 91.089 22.84C91.633 22.84 92.1343 22.9627 92.593 23.208C93.0517 23.4427 93.4037 23.7307 93.649 24.072V23H95.409V31H93.649V29.928C93.4037 30.2693 93.0517 30.5627 92.593 30.808C92.1343 31.0427 91.633 31.16 91.089 31.16ZM89.697 28.824C90.145 29.3147 90.7157 29.56 91.409 29.56C92.1023 29.56 92.673 29.3147 93.121 28.824C93.569 28.3333 93.793 27.7253 93.793 27C93.793 26.2747 93.569 25.6667 93.121 25.176C92.673 24.6853 92.1023 24.44 91.409 24.44C90.7157 24.44 90.145 24.6853 89.697 25.176C89.249 25.6667 89.025 26.2747 89.025 27C89.025 27.7253 89.249 28.3333 89.697 28.824ZM97.7934 31V19H99.5534V31H97.7934ZM101.918 31V19H103.678V31H101.918ZM109.579 31.16C108.385 31.16 107.403 30.7707 106.635 29.992C105.867 29.2027 105.483 28.2053 105.483 27C105.483 25.7947 105.862 24.8027 106.619 24.024C107.377 23.2347 108.369 22.84 109.595 22.84C110.833 22.84 111.83 23.272 112.587 24.136C113.345 24.9893 113.681 26.088 113.595 27.432H107.227C107.249 28.0507 107.483 28.568 107.931 28.984C108.379 29.4 108.95 29.608 109.643 29.608C110.625 29.608 111.297 29.2347 111.659 28.488H113.499C113.254 29.2667 112.785 29.9067 112.091 30.408C111.398 30.9093 110.561 31.16 109.579 31.16ZM109.547 24.312C108.971 24.312 108.475 24.4773 108.059 24.808C107.654 25.128 107.393 25.5867 107.275 26.184H111.707C111.579 25.5653 111.318 25.1013 110.923 24.792C110.529 24.472 110.07 24.312 109.547 24.312ZM115.403 31V23H117.163V24.424C117.312 23.976 117.584 23.6133 117.979 23.336C118.384 23.0587 118.816 22.92 119.275 22.92C119.552 22.92 119.781 22.9413 119.963 22.984V24.792C119.707 24.696 119.413 24.648 119.083 24.648C118.549 24.648 118.096 24.8667 117.723 25.304C117.349 25.7307 117.163 26.328 117.163 27.096V31H115.403ZM124.041 34.344H122.105L123.817 30.568L120.377 23H122.313L124.761 28.664L127.225 23H129.177L124.041 34.344Z" fill="white"/>
</svg>
