<svg width="132" height="39" viewBox="0 0 132 39" fill="none" xmlns="http://www.w3.org/2000/svg">
<rect width="132" height="39" rx="8" fill="#000026"/>
<g clip-path="url(#clip0_2045_1101)">
<path d="M27.7491 9.5C26.6828 9.57375 25.4366 10.2562 24.7103 11.145C24.0479 11.9512 23.5029 13.1487 23.7154 14.3125C24.8803 14.3487 26.0841 13.65 26.7816 12.7462C27.4341 11.905 27.9278 10.715 27.7491 9.5Z" fill="white"/>
<path d="M31.9628 16.2099C30.9391 14.9261 29.5003 14.1812 28.1416 14.1812C26.3478 14.1812 25.5891 15.0399 24.3429 15.0399C23.0579 15.0399 22.0816 14.1837 20.5304 14.1837C19.0066 14.1837 17.3841 15.1149 16.3554 16.7074C14.9092 18.9499 15.1567 23.1661 17.5004 26.7573C18.3391 28.0423 19.4591 29.4873 20.9241 29.4998C22.2279 29.5123 22.5954 28.6636 24.3616 28.6548C26.1278 28.6448 26.4628 29.5111 27.7641 29.4973C29.2303 29.4861 30.4116 27.8848 31.2503 26.5998C31.8516 25.6786 32.0753 25.2148 32.5416 24.1748C29.1503 22.8836 28.6066 18.0611 31.9628 16.2099Z" fill="white"/>
</g>
<path d="M47.19 8.53C47.19 9.01667 47.0367 9.40333 46.73 9.69C46.4233 9.97 46.0133 10.15 45.5 10.23V10.27C46.1 10.35 46.5567 10.5367 46.87 10.83C47.1833 11.1233 47.34 11.5067 47.34 11.98C47.34 12.4 47.2333 12.77 47.02 13.09C46.8067 13.4033 46.4867 13.65 46.06 13.83C45.6333 14.01 45.1 14.1 44.46 14.1C44.0733 14.1 43.7033 14.07 43.35 14.01C43.0033 13.9567 42.68 13.8567 42.38 13.71V12.89C42.5867 12.99 42.8067 13.0767 43.04 13.15C43.28 13.2167 43.52 13.27 43.76 13.31C44 13.3433 44.23 13.36 44.45 13.36C45.09 13.36 45.5733 13.24 45.9 13C46.2333 12.76 46.4 12.42 46.4 11.98C46.4 11.5267 46.2067 11.1967 45.82 10.99C45.4333 10.7833 44.8933 10.68 44.2 10.68H43.18V9.93H44.15C44.6233 9.93 45.0133 9.87667 45.32 9.77C45.6333 9.66333 45.8667 9.51333 46.02 9.32C46.18 9.12 46.26 8.88667 46.26 8.62C46.26 8.26 46.1267 7.98333 45.86 7.79C45.5933 7.59667 45.2467 7.5 44.82 7.5C44.3733 7.5 44 7.55667 43.7 7.67C43.4067 7.78333 43.12 7.93 42.84 8.11L42.41 7.5C42.5967 7.36 42.81 7.23667 43.05 7.13C43.2967 7.01667 43.57 6.92667 43.87 6.86C44.17 6.79333 44.49 6.76 44.83 6.76C45.3433 6.76 45.7733 6.83667 46.12 6.99C46.4733 7.14333 46.74 7.35333 46.92 7.62C47.1 7.88 47.19 8.18333 47.19 8.53ZM50.7589 8.55C51.4122 8.55 51.8956 8.69333 52.2089 8.98C52.5222 9.26667 52.6789 9.72333 52.6789 10.35V14H52.0389L51.8689 13.24H51.8289C51.6756 13.4333 51.5156 13.5967 51.3489 13.73C51.1889 13.8567 51.0022 13.95 50.7889 14.01C50.5822 14.07 50.3289 14.1 50.0289 14.1C49.7089 14.1 49.4189 14.0433 49.1589 13.93C48.9056 13.8167 48.7056 13.6433 48.5589 13.41C48.4122 13.17 48.3389 12.87 48.3389 12.51C48.3389 11.9767 48.5489 11.5667 48.9689 11.28C49.3889 10.9867 50.0356 10.8267 50.9089 10.8L51.8189 10.77V10.45C51.8189 10.0033 51.7222 9.69333 51.5289 9.52C51.3356 9.34667 51.0622 9.26 50.7089 9.26C50.4289 9.26 50.1622 9.30333 49.9089 9.39C49.6556 9.47 49.4189 9.56333 49.1989 9.67L48.9289 9.01C49.1622 8.88333 49.4389 8.77667 49.7589 8.69C50.0789 8.59667 50.4122 8.55 50.7589 8.55ZM51.0189 11.41C50.3522 11.4367 49.8889 11.5433 49.6289 11.73C49.3756 11.9167 49.2489 12.18 49.2489 12.52C49.2489 12.82 49.3389 13.04 49.5189 13.18C49.7056 13.32 49.9422 13.39 50.2289 13.39C50.6822 13.39 51.0589 13.2667 51.3589 13.02C51.6589 12.7667 51.8089 12.38 51.8089 11.86V11.38L51.0189 11.41ZM57.6044 8.64V9.38H55.2144V14H54.3344V8.64H57.6044ZM61.2105 8.54C61.8705 8.54 62.4005 8.77 62.8005 9.23C63.2072 9.69 63.4105 10.3833 63.4105 11.31C63.4105 11.9167 63.3172 12.43 63.1305 12.85C62.9505 13.2633 62.6939 13.5767 62.3605 13.79C62.0339 13.9967 61.6472 14.1 61.2005 14.1C60.9272 14.1 60.6839 14.0633 60.4705 13.99C60.2572 13.9167 60.0739 13.8233 59.9205 13.71C59.7739 13.59 59.6472 13.46 59.5405 13.32H59.4805C59.4939 13.4333 59.5072 13.5767 59.5205 13.75C59.5339 13.9233 59.5405 14.0733 59.5405 14.2V16.4H58.6605V8.64H59.3805L59.5005 9.37H59.5405C59.6472 9.21667 59.7739 9.07667 59.9205 8.95C60.0739 8.82333 60.2539 8.72333 60.4605 8.65C60.6739 8.57667 60.9239 8.54 61.2105 8.54ZM61.0505 9.28C60.6905 9.28 60.4005 9.35 60.1805 9.49C59.9605 9.62333 59.8005 9.82667 59.7005 10.1C59.6005 10.3733 59.5472 10.72 59.5405 11.14V11.31C59.5405 11.75 59.5872 12.1233 59.6805 12.43C59.7739 12.7367 59.9305 12.97 60.1505 13.13C60.3772 13.29 60.6839 13.37 61.0705 13.37C61.3972 13.37 61.6639 13.28 61.8705 13.1C62.0839 12.92 62.2405 12.6767 62.3405 12.37C62.4472 12.0567 62.5005 11.7 62.5005 11.3C62.5005 10.6867 62.3805 10.1967 62.1405 9.83C61.9072 9.46333 61.5439 9.28 61.0505 9.28ZM63.8752 8.64H64.8152L65.9752 11.69C66.0419 11.87 66.1019 12.0433 66.1552 12.21C66.2152 12.3767 66.2686 12.54 66.3152 12.7C66.3619 12.8533 66.3986 13.0033 66.4252 13.15H66.4652C66.5052 12.9833 66.5686 12.7667 66.6552 12.5C66.7419 12.2267 66.8319 11.9533 66.9252 11.68L68.0152 8.64H68.9652L66.6552 14.74C66.5286 15.0733 66.3786 15.3633 66.2052 15.61C66.0386 15.8633 65.8319 16.0567 65.5852 16.19C65.3452 16.33 65.0519 16.4 64.7052 16.4C64.5452 16.4 64.4052 16.39 64.2852 16.37C64.1652 16.3567 64.0619 16.34 63.9752 16.32V15.62C64.0486 15.6333 64.1352 15.6467 64.2352 15.66C64.3419 15.6733 64.4519 15.68 64.5652 15.68C64.7719 15.68 64.9486 15.64 65.0952 15.56C65.2486 15.4867 65.3786 15.3767 65.4852 15.23C65.5919 15.09 65.6819 14.9233 65.7552 14.73L66.0352 14.02L63.8752 8.64ZM71.2229 8.54C71.6296 8.54 71.9829 8.59667 72.2829 8.71C72.5829 8.81667 72.8162 8.97667 72.9829 9.19C73.1496 9.39667 73.2329 9.65 73.2329 9.95C73.2329 10.2767 73.1429 10.5367 72.9629 10.73C72.7829 10.9167 72.5362 11.0533 72.2229 11.14V11.18C72.4362 11.24 72.6329 11.3233 72.8129 11.43C72.9929 11.5367 73.1362 11.6767 73.2429 11.85C73.3562 12.0233 73.4129 12.2467 73.4129 12.52C73.4129 12.8133 73.3296 13.08 73.1629 13.32C73.0029 13.56 72.7529 13.75 72.4129 13.89C72.0796 14.03 71.6496 14.1 71.1229 14.1C70.8696 14.1 70.6262 14.0867 70.3929 14.06C70.1662 14.0333 69.9596 13.9933 69.7729 13.94C69.5929 13.8867 69.4329 13.8233 69.2929 13.75V12.96C69.5196 13.0667 69.7862 13.1633 70.0929 13.25C70.4062 13.3367 70.7462 13.38 71.1129 13.38C71.3796 13.38 71.6196 13.35 71.8329 13.29C72.0529 13.23 72.2262 13.1367 72.3529 13.01C72.4796 12.8767 72.5429 12.6967 72.5429 12.47C72.5429 12.2633 72.4862 12.0967 72.3729 11.97C72.2596 11.8367 72.0896 11.7367 71.8629 11.67C71.6429 11.6033 71.3596 11.57 71.0129 11.57H70.2929V10.85H70.8729C71.3329 10.85 71.6996 10.79 71.9729 10.67C72.2529 10.5433 72.3929 10.33 72.3929 10.03C72.3929 9.77667 72.2862 9.58667 72.0729 9.46C71.8662 9.33333 71.5662 9.27 71.1729 9.27C70.8796 9.27 70.6196 9.3 70.3929 9.36C70.1729 9.41333 69.9296 9.49667 69.6629 9.61L69.3529 8.91C69.6396 8.78333 69.9396 8.69 70.2529 8.63C70.5662 8.57 70.8896 8.54 71.2229 8.54ZM75.5452 11.91C75.5452 11.97 75.5419 12.0567 75.5352 12.17C75.5352 12.2767 75.5319 12.3933 75.5252 12.52C75.5186 12.64 75.5119 12.7567 75.5052 12.87C75.4986 12.9767 75.4919 13.0633 75.4852 13.13L78.3552 8.64H79.4352V14H78.6152V10.84C78.6152 10.7333 78.6152 10.5933 78.6152 10.42C78.6219 10.2467 78.6286 10.0767 78.6352 9.91C78.6419 9.73667 78.6486 9.60667 78.6552 9.52L75.8052 14H74.7152V8.64H75.5452V11.91ZM84.841 9.38H83.091V14H82.221V9.38H80.491V8.64H84.841V9.38ZM88.3669 10.84C88.8335 10.84 89.2202 10.8967 89.5269 11.01C89.8335 11.1233 90.0635 11.2933 90.2169 11.52C90.3769 11.74 90.4569 12.02 90.4569 12.36C90.4569 12.6933 90.3802 12.9833 90.2269 13.23C90.0802 13.4767 89.8502 13.6667 89.5369 13.8C89.2235 13.9333 88.8202 14 88.3269 14H85.8969V8.64H86.7769V10.84H88.3669ZM89.5769 12.41C89.5769 12.0833 89.4602 11.8633 89.2269 11.75C89.0002 11.63 88.6802 11.57 88.2669 11.57H86.7769V13.29H88.2869C88.6602 13.29 88.9669 13.2233 89.2069 13.09C89.4535 12.9567 89.5769 12.73 89.5769 12.41ZM98.8104 9.99C98.8104 10.3233 98.7104 10.5833 98.5104 10.77C98.3104 10.9567 98.0537 11.0833 97.7404 11.15V11.19C98.0737 11.2367 98.3637 11.3567 98.6104 11.55C98.8571 11.7367 98.9804 12.03 98.9804 12.43C98.9804 12.6567 98.9371 12.8667 98.8504 13.06C98.7704 13.2533 98.6437 13.42 98.4704 13.56C98.2971 13.7 98.0737 13.81 97.8004 13.89C97.5271 13.9633 97.1971 14 96.8104 14H94.5004V8.64H96.8004C97.1804 8.64 97.5204 8.68333 97.8204 8.77C98.1271 8.85 98.3671 8.99 98.5404 9.19C98.7204 9.38333 98.8104 9.65 98.8104 9.99ZM98.0704 12.43C98.0704 12.1233 97.9537 11.9033 97.7204 11.77C97.4871 11.6367 97.1437 11.57 96.6904 11.57H95.3804V13.29H96.7104C97.1504 13.29 97.4871 13.2267 97.7204 13.1C97.9537 12.9667 98.0704 12.7433 98.0704 12.43ZM97.9204 10.1C97.9204 9.84667 97.8271 9.66333 97.6404 9.55C97.4604 9.43 97.1637 9.37 96.7504 9.37H95.3804V10.84H96.5904C97.0237 10.84 97.3537 10.78 97.5804 10.66C97.8071 10.54 97.9204 10.3533 97.9204 10.1Z" fill="white"/>
<path d="M42.064 31L47.024 19.64H48.656L53.616 31H51.664L50.368 28.024H45.28L44 31H42.064ZM47.824 22.168L46 26.36H49.648L47.824 22.168ZM56.6315 34.344H54.8715V23H56.6315V24.072C56.8768 23.7307 57.2288 23.4427 57.6875 23.208C58.1568 22.9627 58.6635 22.84 59.2075 22.84C60.2955 22.84 61.2075 23.2453 61.9435 24.056C62.6902 24.8667 63.0635 25.848 63.0635 27C63.0635 28.152 62.6902 29.1333 61.9435 29.944C61.2075 30.7547 60.2955 31.16 59.2075 31.16C58.6635 31.16 58.1568 31.0427 57.6875 30.808C57.2288 30.5627 56.8768 30.2693 56.6315 29.928V34.344ZM58.8875 29.56C59.5808 29.56 60.1515 29.3147 60.5995 28.824C61.0475 28.3333 61.2715 27.7253 61.2715 27C61.2715 26.2747 61.0475 25.6667 60.5995 25.176C60.1515 24.6853 59.5808 24.44 58.8875 24.44C58.1835 24.44 57.6075 24.6853 57.1595 25.176C56.7115 25.6667 56.4875 26.2747 56.4875 27C56.4875 27.7253 56.7115 28.3333 57.1595 28.824C57.6075 29.3147 58.1835 29.56 58.8875 29.56ZM66.6159 34.344H64.8559V23H66.6159V24.072C66.8612 23.7307 67.2132 23.4427 67.6719 23.208C68.1412 22.9627 68.6479 22.84 69.1919 22.84C70.2799 22.84 71.1919 23.2453 71.9279 24.056C72.6745 24.8667 73.0479 25.848 73.0479 27C73.0479 28.152 72.6745 29.1333 71.9279 29.944C71.1919 30.7547 70.2799 31.16 69.1919 31.16C68.6479 31.16 68.1412 31.0427 67.6719 30.808C67.2132 30.5627 66.8612 30.2693 66.6159 29.928V34.344ZM68.8719 29.56C69.5652 29.56 70.1359 29.3147 70.5839 28.824C71.0319 28.3333 71.2559 27.7253 71.2559 27C71.2559 26.2747 71.0319 25.6667 70.5839 25.176C70.1359 24.6853 69.5652 24.44 68.8719 24.44C68.1679 24.44 67.5919 24.6853 67.1439 25.176C66.6959 25.6667 66.4719 26.2747 66.4719 27C66.4719 27.7253 66.6959 28.3333 67.1439 28.824C67.5919 29.3147 68.1679 29.56 68.8719 29.56ZM82.1899 31.192C80.9739 31.192 79.9872 30.856 79.2299 30.184C78.4832 29.5013 78.0885 28.6853 78.0459 27.736H79.9179C79.9819 28.28 80.2325 28.7013 80.6699 29C81.1179 29.2987 81.6192 29.448 82.1739 29.448C82.7285 29.448 83.1819 29.32 83.5339 29.064C83.8965 28.7973 84.0779 28.4453 84.0779 28.008C84.0779 27.24 83.5552 26.6853 82.5099 26.344L81.1179 25.88C79.2619 25.2933 78.3339 24.2 78.3339 22.6C78.3339 21.6293 78.6645 20.8613 79.3259 20.296C79.9979 19.7307 80.8725 19.448 81.9499 19.448C83.0699 19.448 83.9605 19.7733 84.6219 20.424C85.2832 21.064 85.6512 21.8213 85.7259 22.696H83.8539C83.7365 22.1947 83.4965 21.8213 83.1339 21.576C82.7712 21.32 82.3659 21.192 81.9179 21.192C81.4272 21.192 81.0219 21.3147 80.7019 21.56C80.3819 21.7947 80.2165 22.1093 80.2059 22.504C80.2059 22.9093 80.3285 23.24 80.5739 23.496C80.8192 23.7413 81.2085 23.9493 81.7419 24.12L83.1499 24.568C85.0272 25.176 85.9659 26.3013 85.9659 27.944C85.9659 28.904 85.6139 29.688 84.9099 30.296C84.2165 30.8933 83.3099 31.192 82.1899 31.192ZM91.2654 31.08C90.4547 31.08 89.7934 30.856 89.2814 30.408C88.78 29.9493 88.5294 29.288 88.5294 28.424V24.568H86.8654V23H88.5294V20.776H90.2894V23H92.5774V24.568H90.2894V28.136C90.2894 28.6267 90.396 28.9787 90.6094 29.192C90.8227 29.3947 91.164 29.496 91.6334 29.496C92.0174 29.496 92.332 29.4427 92.5774 29.336V30.904C92.1934 31.0213 91.756 31.08 91.2654 31.08ZM100.729 29.96C99.9291 30.76 98.9371 31.16 97.7531 31.16C96.5691 31.16 95.5718 30.76 94.7611 29.96C93.9611 29.1493 93.5611 28.1627 93.5611 27C93.5611 25.8373 93.9611 24.856 94.7611 24.056C95.5718 23.2453 96.5691 22.84 97.7531 22.84C98.9371 22.84 99.9291 23.2453 100.729 24.056C101.54 24.856 101.945 25.8373 101.945 27C101.945 28.1627 101.54 29.1493 100.729 29.96ZM97.7531 29.528C98.4465 29.528 99.0171 29.288 99.4651 28.808C99.9238 28.3173 100.153 27.7147 100.153 27C100.153 26.2853 99.9238 25.688 99.4651 25.208C99.0171 24.7173 98.4465 24.472 97.7531 24.472C97.0491 24.472 96.4678 24.7173 96.0091 25.208C95.5611 25.688 95.3371 26.2853 95.3371 27C95.3371 27.7147 95.5611 28.3173 96.0091 28.808C96.4678 29.288 97.0491 29.528 97.7531 29.528ZM103.715 31V23H105.475V24.424C105.625 23.976 105.897 23.6133 106.291 23.336C106.697 23.0587 107.129 22.92 107.587 22.92C107.865 22.92 108.094 22.9413 108.275 22.984V24.792C108.019 24.696 107.726 24.648 107.395 24.648C106.862 24.648 106.409 24.8667 106.035 25.304C105.662 25.7307 105.475 26.328 105.475 27.096V31H103.715ZM113.048 31.16C111.853 31.16 110.872 30.7707 110.104 29.992C109.336 29.2027 108.952 28.2053 108.952 27C108.952 25.7947 109.331 24.8027 110.088 24.024C110.845 23.2347 111.837 22.84 113.064 22.84C114.301 22.84 115.299 23.272 116.056 24.136C116.813 24.9893 117.149 26.088 117.064 27.432H110.696C110.717 28.0507 110.952 28.568 111.4 28.984C111.848 29.4 112.419 29.608 113.112 29.608C114.093 29.608 114.765 29.2347 115.128 28.488H116.968C116.723 29.2667 116.253 29.9067 115.56 30.408C114.867 30.9093 114.029 31.16 113.048 31.16ZM113.016 24.312C112.44 24.312 111.944 24.4773 111.528 24.808C111.123 25.128 110.861 25.5867 110.744 26.184H115.176C115.048 25.5653 114.787 25.1013 114.392 24.792C113.997 24.472 113.539 24.312 113.016 24.312Z" fill="white"/>
<defs>
<clipPath id="clip0_2045_1101">
<rect width="20" height="20" fill="white" transform="translate(14 9.5)"/>
</clipPath>
</defs>
</svg>
