<svg width="472" height="261" viewBox="0 0 472 261" fill="none" xmlns="http://www.w3.org/2000/svg">
<rect y="0.5" width="472" height="260" rx="8" fill="#F9FAFC"/>
<rect width="472" height="200" transform="translate(0 30.5)" fill="#F9FAFC"/>
<path fill-rule="evenodd" clip-rule="evenodd" d="M217.857 79.1326L281.127 90.8939C282.135 91.0813 283.097 91.4638 283.956 92.0196C284.815 92.5754 285.556 93.2936 286.135 94.1332C286.714 94.9728 287.121 95.9173 287.333 96.9128C287.544 97.9083 287.555 98.9354 287.366 99.9353L275.506 162.675C275.317 163.674 274.931 164.628 274.37 165.48C273.81 166.332 273.085 167.066 272.239 167.64C271.392 168.215 270.44 168.618 269.436 168.828C268.432 169.037 267.396 169.049 266.388 168.861L264.497 168.51V174.253C264.497 176.308 263.674 178.278 262.209 179.731C260.743 181.184 258.756 182 256.685 182H192.312C190.24 182 188.254 181.184 186.789 179.732C185.324 178.279 184.5 176.309 184.5 174.255V110.422C184.5 109.405 184.702 108.397 185.094 107.457C185.487 106.517 186.062 105.663 186.788 104.944C187.513 104.224 188.375 103.654 189.322 103.264C190.27 102.875 191.286 102.675 192.312 102.675H205.458L208.739 85.3194C209.121 83.3 210.296 81.5137 212.006 80.3535C213.716 79.1933 215.821 78.7541 217.857 79.1326ZM189.549 113.46V146.309L212.421 131.384L226.071 144.921L234.99 139.525L259.447 162.258V113.103C259.447 111.665 258.871 110.286 257.846 109.269C256.82 108.252 255.429 107.681 253.979 107.681H195.377C193.831 107.681 192.349 108.289 191.256 109.373C190.163 110.457 189.549 111.927 189.549 113.46ZM272.772 149.962L281.905 101.649C282.037 100.95 282.029 100.231 281.882 99.5338C281.734 98.837 281.449 98.1758 281.043 97.5881C280.638 97.0004 280.12 96.4977 279.518 96.1086C278.917 95.7195 278.244 95.4518 277.538 95.3205L219.939 84.6134C219.187 84.4735 218.414 84.482 217.665 84.6382C216.916 84.7945 216.206 85.0955 215.574 85.5241C214.942 85.9527 214.402 86.5004 213.984 87.1361C213.565 87.7718 213.278 88.483 213.136 89.229L210.595 102.675H256.684C258.756 102.675 260.743 103.492 262.208 104.944C263.673 106.397 264.496 108.368 264.496 110.422V138.763L272.772 149.962ZM252.275 122.46C252.275 127.54 248.122 131.658 242.999 131.658C237.876 131.658 233.723 127.54 233.723 122.46C233.723 117.38 237.876 113.262 242.999 113.262C248.122 113.262 252.275 117.38 252.275 122.46Z" fill="#A5A5B3"/>
</svg>
