<svg width="148" height="39" viewBox="0 0 148 39" fill="none" xmlns="http://www.w3.org/2000/svg">
<rect width="148" height="39" rx="8" fill="#000026"/>
<g clip-path="url(#clip0_2045_1112)">
<path d="M18.3653 9.81985C17.5829 9.38738 16.6642 9.39738 15.8867 9.8261L24.9987 18.2319L28.0598 15.1708L18.3653 9.81985Z" fill="white"/>
<path d="M14.9755 10.686C14.753 11.0498 14.6255 11.466 14.6255 11.9072V27.0889C14.6255 27.5163 14.7417 27.9238 14.9517 28.28L24.115 19.1168L14.9755 10.686Z" fill="white"/>
<path d="M32.1183 17.4107L29.1984 15.7996L25.9174 19.0794L29.9384 22.7879L32.1195 21.5842C32.9045 21.1493 33.3744 20.3693 33.3744 19.4969C33.3732 18.6244 32.9045 17.8444 32.1183 17.4107Z" fill="white"/>
<path d="M25.0337 19.9644L15.8455 29.1526C16.2442 29.3801 16.6817 29.5001 17.1216 29.5001C17.5466 29.5001 17.9741 29.3926 18.3653 29.1763L28.786 23.4254L25.0337 19.9644Z" fill="white"/>
</g>
<path d="M47.78 6.86V13.2H48.69V15.88H47.83V14H42.92V15.88H42.06V13.2H42.61C42.85 12.7867 43.0767 12.3233 43.29 11.81C43.51 11.2967 43.7033 10.76 43.87 10.2C44.0367 9.63333 44.1733 9.06667 44.28 8.5C44.3867 7.93333 44.4533 7.38667 44.48 6.86H47.78ZM45.27 7.67C45.2433 8.05667 45.1767 8.49333 45.07 8.98C44.97 9.46667 44.84 9.96667 44.68 10.48C44.5267 10.9867 44.3533 11.4767 44.16 11.95C43.9733 12.4233 43.7733 12.84 43.56 13.2H46.89V7.67H45.27ZM54.4241 11.31C54.4241 11.7567 54.3641 12.1533 54.2441 12.5C54.1307 12.84 53.9641 13.13 53.7441 13.37C53.5307 13.61 53.2674 13.7933 52.9541 13.92C52.6474 14.04 52.3041 14.1 51.9241 14.1C51.5707 14.1 51.2441 14.04 50.9441 13.92C50.6441 13.7933 50.3841 13.61 50.1641 13.37C49.9441 13.13 49.7707 12.84 49.6441 12.5C49.5241 12.1533 49.4641 11.7567 49.4641 11.31C49.4641 10.7167 49.5641 10.2167 49.7641 9.81C49.9641 9.39667 50.2507 9.08333 50.6241 8.87C50.9974 8.65 51.4407 8.54 51.9541 8.54C52.4407 8.54 52.8674 8.65 53.2341 8.87C53.6074 9.08333 53.8974 9.39667 54.1041 9.81C54.3174 10.2167 54.4241 10.7167 54.4241 11.31ZM50.3741 11.31C50.3741 11.73 50.4274 12.0967 50.5341 12.41C50.6474 12.7167 50.8207 12.9533 51.0541 13.12C51.2874 13.2867 51.5841 13.37 51.9441 13.37C52.3041 13.37 52.6007 13.2867 52.8341 13.12C53.0674 12.9533 53.2374 12.7167 53.3441 12.41C53.4574 12.0967 53.5141 11.73 53.5141 11.31C53.5141 10.8833 53.4574 10.52 53.3441 10.22C53.2307 9.92 53.0574 9.69 52.8241 9.53C52.5974 9.36333 52.3007 9.28 51.9341 9.28C51.3874 9.28 50.9907 9.46 50.7441 9.82C50.4974 10.18 50.3741 10.6767 50.3741 11.31ZM57.9688 14.1C57.4954 14.1 57.0721 14.0033 56.6988 13.81C56.3321 13.6167 56.0421 13.3167 55.8288 12.91C55.6221 12.5033 55.5188 11.9833 55.5188 11.35C55.5188 10.69 55.6288 10.1533 55.8488 9.74C56.0688 9.32667 56.3654 9.02333 56.7388 8.83C57.1188 8.63667 57.5488 8.54 58.0288 8.54C58.3021 8.54 58.5654 8.57 58.8188 8.63C59.0721 8.68333 59.2788 8.75 59.4388 8.83L59.1688 9.56C59.0088 9.5 58.8221 9.44333 58.6088 9.39C58.3954 9.33667 58.1954 9.31 58.0088 9.31C57.6488 9.31 57.3521 9.38667 57.1188 9.54C56.8854 9.69333 56.7121 9.92 56.5988 10.22C56.4854 10.52 56.4288 10.8933 56.4288 11.34C56.4288 11.7667 56.4854 12.13 56.5988 12.43C56.7121 12.73 56.8821 12.9567 57.1088 13.11C57.3354 13.2633 57.6188 13.34 57.9588 13.34C58.2521 13.34 58.5088 13.31 58.7288 13.25C58.9554 13.19 59.1621 13.1167 59.3488 13.03V13.81C59.1688 13.9033 58.9688 13.9733 58.7488 14.02C58.5354 14.0733 58.2754 14.1 57.9688 14.1ZM64.3234 9.38H62.5734V14H61.7034V9.38H59.9734V8.64H64.3234V9.38ZM64.5393 8.64H65.4793L66.6393 11.69C66.706 11.87 66.766 12.0433 66.8193 12.21C66.8793 12.3767 66.9326 12.54 66.9793 12.7C67.026 12.8533 67.0626 13.0033 67.0893 13.15H67.1293C67.1693 12.9833 67.2326 12.7667 67.3193 12.5C67.406 12.2267 67.496 11.9533 67.5893 11.68L68.6793 8.64H69.6293L67.3193 14.74C67.1926 15.0733 67.0426 15.3633 66.8693 15.61C66.7026 15.8633 66.496 16.0567 66.2493 16.19C66.0093 16.33 65.716 16.4 65.3693 16.4C65.2093 16.4 65.0693 16.39 64.9493 16.37C64.8293 16.3567 64.726 16.34 64.6393 16.32V15.62C64.7126 15.6333 64.7993 15.6467 64.8993 15.66C65.006 15.6733 65.116 15.68 65.2293 15.68C65.436 15.68 65.6126 15.64 65.7593 15.56C65.9126 15.4867 66.0426 15.3767 66.1493 15.23C66.256 15.09 66.346 14.9233 66.4193 14.73L66.6993 14.02L64.5393 8.64ZM75.007 8.64V14H74.127V9.39H71.357V14H70.477V8.64H75.007ZM77.5972 8.64V10.87H80.5072V8.64H81.3872V14H80.5072V11.61H77.5972V14H76.7172V8.64H77.5972ZM87.7444 11.31C87.7444 11.7567 87.6844 12.1533 87.5644 12.5C87.451 12.84 87.2844 13.13 87.0644 13.37C86.851 13.61 86.5877 13.7933 86.2744 13.92C85.9677 14.04 85.6244 14.1 85.2444 14.1C84.891 14.1 84.5644 14.04 84.2644 13.92C83.9644 13.7933 83.7044 13.61 83.4844 13.37C83.2644 13.13 83.091 12.84 82.9644 12.5C82.8444 12.1533 82.7844 11.7567 82.7844 11.31C82.7844 10.7167 82.8844 10.2167 83.0844 9.81C83.2844 9.39667 83.571 9.08333 83.9444 8.87C84.3177 8.65 84.761 8.54 85.2744 8.54C85.761 8.54 86.1877 8.65 86.5544 8.87C86.9277 9.08333 87.2177 9.39667 87.4244 9.81C87.6377 10.2167 87.7444 10.7167 87.7444 11.31ZM83.6944 11.31C83.6944 11.73 83.7477 12.0967 83.8544 12.41C83.9677 12.7167 84.141 12.9533 84.3744 13.12C84.6077 13.2867 84.9044 13.37 85.2644 13.37C85.6244 13.37 85.921 13.2867 86.1544 13.12C86.3877 12.9533 86.5577 12.7167 86.6644 12.41C86.7777 12.0967 86.8344 11.73 86.8344 11.31C86.8344 10.8833 86.7777 10.52 86.6644 10.22C86.551 9.92 86.3777 9.69 86.1444 9.53C85.9177 9.36333 85.621 9.28 85.2544 9.28C84.7077 9.28 84.311 9.46 84.0644 9.82C83.8177 10.18 83.6944 10.6767 83.6944 11.31ZM96.1151 9.99C96.1151 10.3233 96.0151 10.5833 95.8151 10.77C95.6151 10.9567 95.3584 11.0833 95.0451 11.15V11.19C95.3784 11.2367 95.6684 11.3567 95.9151 11.55C96.1617 11.7367 96.2851 12.03 96.2851 12.43C96.2851 12.6567 96.2417 12.8667 96.1551 13.06C96.0751 13.2533 95.9484 13.42 95.7751 13.56C95.6017 13.7 95.3784 13.81 95.1051 13.89C94.8317 13.9633 94.5017 14 94.1151 14H91.8051V8.64H94.1051C94.4851 8.64 94.8251 8.68333 95.1251 8.77C95.4317 8.85 95.6717 8.99 95.8451 9.19C96.0251 9.38333 96.1151 9.65 96.1151 9.99ZM95.3751 12.43C95.3751 12.1233 95.2584 11.9033 95.0251 11.77C94.7917 11.6367 94.4484 11.57 93.9951 11.57H92.6851V13.29H94.0151C94.4551 13.29 94.7917 13.2267 95.0251 13.1C95.2584 12.9667 95.3751 12.7433 95.3751 12.43ZM95.2251 10.1C95.2251 9.84667 95.1317 9.66333 94.9451 9.55C94.7651 9.43 94.4684 9.37 94.0551 9.37H92.6851V10.84H93.8951C94.3284 10.84 94.6584 10.78 94.8851 10.66C95.1117 10.54 95.2251 10.3533 95.2251 10.1Z" fill="white"/>
<path d="M48.608 31.192C46.912 31.192 45.4987 30.632 44.368 29.512C43.2373 28.3813 42.672 26.984 42.672 25.32C42.672 23.656 43.232 22.264 44.352 21.144C45.4827 20.0133 46.896 19.448 48.592 19.448C49.84 19.448 50.9547 19.784 51.936 20.456C52.9173 21.128 53.5947 21.976 53.968 23H51.84C51.5413 22.4773 51.0987 22.056 50.512 21.736C49.936 21.416 49.296 21.256 48.592 21.256C47.4187 21.256 46.4533 21.6453 45.696 22.424C44.9387 23.2027 44.56 24.168 44.56 25.32C44.56 26.472 44.9387 27.4373 45.696 28.216C46.4533 28.9947 47.424 29.384 48.608 29.384C49.6427 29.384 50.4907 29.0853 51.152 28.488C51.8133 27.8907 52.208 27.1013 52.336 26.12H48.448V24.36H54.256C54.4587 26.472 54.0053 28.1413 52.896 29.368C51.7973 30.584 50.368 31.192 48.608 31.192ZM62.7448 29.96C61.9448 30.76 60.9528 31.16 59.7688 31.16C58.5848 31.16 57.5874 30.76 56.7768 29.96C55.9768 29.1493 55.5768 28.1627 55.5768 27C55.5768 25.8373 55.9768 24.856 56.7768 24.056C57.5874 23.2453 58.5848 22.84 59.7688 22.84C60.9528 22.84 61.9448 23.2453 62.7448 24.056C63.5554 24.856 63.9608 25.8373 63.9608 27C63.9608 28.1627 63.5554 29.1493 62.7448 29.96ZM59.7688 29.528C60.4621 29.528 61.0328 29.288 61.4808 28.808C61.9394 28.3173 62.1688 27.7147 62.1688 27C62.1688 26.2853 61.9394 25.688 61.4808 25.208C61.0328 24.7173 60.4621 24.472 59.7688 24.472C59.0648 24.472 58.4834 24.7173 58.0248 25.208C57.5768 25.688 57.3528 26.2853 57.3528 27C57.3528 27.7147 57.5768 28.3173 58.0248 28.808C58.4834 29.288 59.0648 29.528 59.7688 29.528ZM72.3229 29.96C71.5229 30.76 70.5309 31.16 69.3469 31.16C68.1629 31.16 67.1655 30.76 66.3549 29.96C65.5549 29.1493 65.1549 28.1627 65.1549 27C65.1549 25.8373 65.5549 24.856 66.3549 24.056C67.1655 23.2453 68.1629 22.84 69.3469 22.84C70.5309 22.84 71.5229 23.2453 72.3229 24.056C73.1335 24.856 73.5389 25.8373 73.5389 27C73.5389 28.1627 73.1335 29.1493 72.3229 29.96ZM69.3469 29.528C70.0402 29.528 70.6109 29.288 71.0589 28.808C71.5175 28.3173 71.7469 27.7147 71.7469 27C71.7469 26.2853 71.5175 25.688 71.0589 25.208C70.6109 24.7173 70.0402 24.472 69.3469 24.472C68.6429 24.472 68.0615 24.7173 67.6029 25.208C67.1549 25.688 66.9309 26.2853 66.9309 27C66.9309 27.7147 67.1549 28.3173 67.6029 28.808C68.0615 29.288 68.6429 29.528 69.3469 29.528ZM78.925 34.504C77.837 34.504 76.941 34.2373 76.237 33.704C75.5437 33.1707 75.1437 32.4773 75.037 31.624H76.765C77.0743 32.5413 77.8103 33 78.973 33C79.6023 33 80.1197 32.792 80.525 32.376C80.941 31.9707 81.149 31.3947 81.149 30.648V29.704C80.893 30.0667 80.5357 30.3653 80.077 30.6C79.6183 30.8347 79.1223 30.952 78.589 30.952C77.5117 30.952 76.5997 30.5627 75.853 29.784C75.117 28.9947 74.749 28.0293 74.749 26.888C74.749 25.7573 75.117 24.8027 75.853 24.024C76.5997 23.2347 77.5117 22.84 78.589 22.84C79.1223 22.84 79.6183 22.9573 80.077 23.192C80.5357 23.416 80.893 23.7093 81.149 24.072V23H82.909V30.504C82.909 31.8267 82.5303 32.824 81.773 33.496C81.0263 34.168 80.077 34.504 78.925 34.504ZM77.213 28.648C77.6717 29.1067 78.237 29.336 78.909 29.336C79.581 29.336 80.1463 29.1067 80.605 28.648C81.0637 28.1787 81.293 27.592 81.293 26.888C81.293 26.184 81.0637 25.6027 80.605 25.144C80.1463 24.6747 79.581 24.44 78.909 24.44C78.237 24.44 77.6717 24.6747 77.213 25.144C76.7543 25.6027 76.525 26.184 76.525 26.888C76.525 27.592 76.7543 28.1787 77.213 28.648ZM85.2778 31V19H87.0378V31H85.2778ZM92.9388 31.16C91.7441 31.16 90.7628 30.7707 89.9948 29.992C89.2268 29.2027 88.8428 28.2053 88.8428 27C88.8428 25.7947 89.2214 24.8027 89.9788 24.024C90.7361 23.2347 91.7281 22.84 92.9548 22.84C94.1921 22.84 95.1894 23.272 95.9468 24.136C96.7041 24.9893 97.0401 26.088 96.9548 27.432H90.5868C90.6081 28.0507 90.8428 28.568 91.2908 28.984C91.7388 29.4 92.3094 29.608 93.0028 29.608C93.9841 29.608 94.6561 29.2347 95.0188 28.488H96.8588C96.6134 29.2667 96.1441 29.9067 95.4508 30.408C94.7574 30.9093 93.9201 31.16 92.9388 31.16ZM92.9068 24.312C92.3308 24.312 91.8348 24.4773 91.4188 24.808C91.0134 25.128 90.7521 25.5867 90.6348 26.184H95.0668C94.9388 25.5653 94.6774 25.1013 94.2828 24.792C93.8881 24.472 93.4294 24.312 92.9068 24.312ZM109.184 20.712C109.92 21.416 110.288 22.296 110.288 23.352C110.288 24.408 109.92 25.2933 109.184 26.008C108.448 26.712 107.504 27.064 106.352 27.064H104.608V31H102.736V19.64H106.352C107.504 19.64 108.448 19.9973 109.184 20.712ZM107.872 24.76C108.256 24.3867 108.448 23.9173 108.448 23.352C108.448 22.7867 108.256 22.3227 107.872 21.96C107.498 21.5867 106.986 21.4 106.336 21.4H104.608V25.304H106.336C106.986 25.304 107.498 25.1227 107.872 24.76ZM111.872 31V19H113.632V31H111.872ZM119.277 31.16C118.189 31.16 117.271 30.7547 116.525 29.944C115.789 29.1333 115.421 28.152 115.421 27C115.421 25.848 115.789 24.8667 116.525 24.056C117.271 23.2453 118.189 22.84 119.277 22.84C119.821 22.84 120.322 22.9627 120.781 23.208C121.239 23.4427 121.591 23.7307 121.837 24.072V23H123.597V31H121.837V29.928C121.591 30.2693 121.239 30.5627 120.781 30.808C120.322 31.0427 119.821 31.16 119.277 31.16ZM117.885 28.824C118.333 29.3147 118.903 29.56 119.597 29.56C120.29 29.56 120.861 29.3147 121.309 28.824C121.757 28.3333 121.981 27.7253 121.981 27C121.981 26.2747 121.757 25.6667 121.309 25.176C120.861 24.6853 120.29 24.44 119.597 24.44C118.903 24.44 118.333 24.6853 117.885 25.176C117.437 25.6667 117.213 26.2747 117.213 27C117.213 27.7253 117.437 28.3333 117.885 28.824ZM128.541 34.344H126.605L128.317 30.568L124.877 23H126.813L129.261 28.664L131.725 23H133.677L128.541 34.344Z" fill="white"/>
<defs>
<clipPath id="clip0_2045_1112">
<rect width="20" height="20" fill="white" transform="translate(14 9.5)"/>
</clipPath>
</defs>
</svg>
