<svg width="42" height="42" viewBox="0 0 42 42" fill="none" xmlns="http://www.w3.org/2000/svg">
<rect width="42" height="42" rx="7" fill="#000026"/>
<path d="M15.7783 29.8358C16.9123 30.9927 18.3375 31.5703 20.0539 31.5703C21.7704 31.5703 23.1921 30.9927 24.3208 29.8358C25.4487 28.6789 26.0122 27.228 26.0122 25.4856C26.0122 23.7423 25.4487 22.2949 24.3208 21.1424C23.1921 19.9916 21.7704 19.4158 20.0539 19.4158C18.3375 19.4158 16.9123 19.9951 15.7783 21.152C14.6453 22.3081 14.0783 23.7529 14.0783 25.4856C14.0783 27.228 14.6453 28.6789 15.7783 29.8358ZM26.8877 16.2146L29.777 16.2304V34.7566H26.7564L26.3925 32.5095C25.5568 33.3706 24.5715 34.0377 23.4384 34.5126C22.3045 34.9875 21.0833 35.2253 19.773 35.2253C17.9909 35.2253 16.373 34.8031 14.9201 33.9587C13.4681 33.1161 12.329 31.9477 11.5036 30.4564C10.6783 28.9642 10.2651 27.307 10.2651 25.4856C10.2651 23.6519 10.6783 21.9965 11.5036 20.5148C12.329 19.034 13.4681 17.8744 14.9201 17.0353C16.373 16.1979 17.9909 15.7783 19.773 15.7783C21.0945 15.7783 22.3261 16.0188 23.4704 16.4998C24.6156 16.9809 25.606 17.662 26.4418 18.5442L26.8877 16.2146Z" fill="white"/>
<path d="M22.9471 5.41895C22.6759 7.86585 23.4971 9.96172 25.1076 11.7515C26.477 13.2717 28.2114 14.1441 30.2772 14.1441C30.4368 13.2913 30.402 12.4582 30.1618 11.6495C29.1969 8.40971 27.0373 6.39995 23.7749 5.54532C23.4595 5.46294 23.27 5.41895 22.9471 5.41895Z" fill="#9BC32C"/>
</svg>
