<svg width="162" height="29" viewBox="0 0 162 29" fill="none" xmlns="http://www.w3.org/2000/svg">
<path d="M5.13632 24.0975C6.19178 25.15 7.51955 25.6756 9.11878 25.6756C10.7176 25.6756 12.0421 25.15 13.0936 24.0975C14.1444 23.045 14.6692 21.7256 14.6692 20.1408C14.6692 18.5549 14.1444 17.238 13.0936 16.1901C12.0421 15.1435 10.7176 14.6197 9.11878 14.6197C7.51955 14.6197 6.19178 15.146 5.13632 16.1985C4.08022 17.2504 3.55226 18.5645 3.55226 20.1408C3.55226 21.7256 4.08022 23.045 5.13632 24.0975ZM15.4847 11.7077L18.1762 11.7223V28.5734H15.3622L15.0234 26.5297C14.2443 27.3128 13.3263 27.9198 12.2712 28.3517C11.2151 28.7841 10.0772 28.9999 8.85718 28.9999C7.19639 28.9999 5.68963 28.6159 4.33665 27.8484C2.98332 27.0817 1.92227 26.0184 1.15334 24.6624C0.38464 23.3051 0 21.7977 0 20.1408C0 18.4733 0.38464 16.9667 1.15334 15.619C1.92227 14.2724 2.98332 13.2176 4.33665 12.4544C5.68963 11.6921 7.19639 11.3107 8.85718 11.3107C10.0878 11.3107 11.2352 11.5295 12.3017 11.9671C13.3676 12.4044 14.2907 13.0245 15.0695 13.8267L15.4847 11.7077Z" fill="#1CABC4"/>
<path d="M23.1576 5.68396H26.6479V28.5884H23.1576V5.68396Z" fill="#1CABC4"/>
<path d="M50.621 11.3414C52.4052 11.3414 53.8521 11.9515 54.9644 13.1718C56.0772 14.3912 56.6336 15.9566 56.6336 17.8684V28.5889H53.1429V18.7226C53.1429 17.3593 52.8559 16.3079 52.2824 15.5654C51.7075 14.8236 50.8927 14.4519 49.8366 14.4519C48.6991 14.4519 47.7481 14.9152 46.9847 15.84C46.2202 16.766 45.8392 17.9392 45.8392 19.3627V28.5889H42.4252V18.7226C42.4252 17.3593 42.141 16.3079 41.572 15.5654C41.003 14.8236 40.185 14.4519 39.1194 14.4519C37.9815 14.4519 37.0282 14.9152 36.2586 15.84C35.4899 16.766 35.106 17.9392 35.106 19.3627V28.5889H31.6156V11.7222H34.0908L34.6909 13.9032C35.3361 13.1003 36.1231 12.4725 37.0514 12.0196C37.9783 11.568 38.9554 11.3414 39.98 11.3414C41.1187 11.3414 42.1305 11.6034 43.0174 12.1264C43.9038 12.6507 44.5936 13.375 45.0853 14.2993C45.7106 13.3848 46.5097 12.6634 47.4839 12.1342C48.4578 11.6057 49.5034 11.3414 50.621 11.3414Z" fill="#1CABC4"/>
<path d="M65.26 24.0975C66.3154 25.15 67.6431 25.6756 69.2431 25.6756C70.8412 25.6756 72.166 25.15 73.2179 24.0975C74.2681 23.045 74.7928 21.7256 74.7928 20.1408C74.7928 18.5549 74.2681 17.238 73.2179 16.1901C72.166 15.1435 70.8412 14.6197 69.2431 14.6197C67.6431 14.6197 66.3154 15.146 65.26 16.1985C64.204 17.2504 63.6765 18.5645 63.6765 20.1408C63.6765 21.7256 64.204 23.045 65.26 24.0975ZM75.6083 11.7077L78.2999 11.7223V28.5734H75.4858L75.147 26.5297C74.3683 27.3128 73.451 27.9198 72.3949 28.3517C71.3388 28.7841 70.2009 28.9999 68.9808 28.9999C67.321 28.9999 65.8132 28.6159 64.4602 27.8484C63.1069 27.0817 62.0463 26.0184 61.2773 24.6624C60.5083 23.3051 60.1237 21.7977 60.1237 20.1408C60.1237 18.4733 60.5083 16.9667 61.2773 15.619C62.0463 14.2724 63.1069 13.2176 64.4602 12.4544C65.8132 11.6921 67.321 11.3107 68.9808 11.3107C70.2114 11.3107 71.3588 11.5295 72.4253 11.9671C73.4913 12.4044 74.414 13.0245 75.1933 13.8267L75.6083 11.7077Z" fill="#1CABC4"/>
<path d="M11.8043 1.61328C11.5722 3.70003 12.2757 5.48795 13.6574 7.01439C14.8324 8.31102 16.3202 9.05538 18.0926 9.05538C18.2287 8.32793 18.199 7.61721 17.993 6.92741C17.1655 4.16462 15.3129 2.45016 12.5146 1.72131C12.2442 1.65053 12.0815 1.61328 11.8043 1.61328Z" fill="#9BC32C"/>
<path d="M87.8659 8.22H89.7919L94.2559 14.268L98.7379 8.22H100.664V21H98.5399V11.838L94.2739 17.634L89.9719 11.82V21H87.8659V8.22ZM103.792 21V8.22H105.898V21H103.792ZM109.984 21H107.446L112.324 14.52L107.68 8.22H110.164L113.602 12.882L117.058 8.22H119.542L114.898 14.538L119.776 21H117.256L113.62 16.212L109.984 21ZM124.773 21.18C123.609 21.18 122.589 20.814 121.713 20.082C120.837 19.35 120.387 18.462 120.363 17.418H122.397C122.529 17.958 122.811 18.396 123.243 18.732C123.687 19.068 124.197 19.236 124.773 19.236C125.481 19.236 126.057 19.008 126.501 18.552C126.945 18.084 127.167 17.52 127.167 16.86C127.167 16.176 126.945 15.612 126.501 15.168C126.069 14.712 125.511 14.484 124.827 14.484C123.795 14.484 123.051 14.922 122.595 15.798L120.813 15.24L122.181 8.22H128.265V10.146H123.729L123.135 13.206C123.663 12.834 124.329 12.648 125.133 12.648C126.333 12.648 127.305 13.062 128.049 13.89C128.793 14.718 129.165 15.774 129.165 17.058C129.165 18.258 128.751 19.248 127.923 20.028C127.107 20.796 126.057 21.18 124.773 21.18ZM138.858 19.812C137.994 20.724 136.884 21.18 135.528 21.18C134.172 21.18 133.062 20.724 132.198 19.812C131.334 18.888 130.902 17.706 130.902 16.266V12.918C130.902 11.478 131.334 10.302 132.198 9.39C133.062 8.466 134.172 8.004 135.528 8.004C136.884 8.004 137.994 8.466 138.858 9.39C139.734 10.302 140.172 11.478 140.172 12.918V16.266C140.172 17.706 139.734 18.888 138.858 19.812ZM135.528 19.236C136.332 19.236 136.974 18.972 137.454 18.444C137.946 17.916 138.192 17.19 138.192 16.266V12.918C138.192 11.994 137.946 11.268 137.454 10.74C136.974 10.212 136.332 9.948 135.528 9.948C134.736 9.948 134.094 10.212 133.602 10.74C133.122 11.268 132.882 11.994 132.882 12.918V16.266C132.882 17.19 133.122 17.916 133.602 18.444C134.094 18.972 134.736 19.236 135.528 19.236ZM150.125 19.812C149.261 20.724 148.151 21.18 146.795 21.18C145.439 21.18 144.329 20.724 143.465 19.812C142.601 18.888 142.169 17.706 142.169 16.266V12.918C142.169 11.478 142.601 10.302 143.465 9.39C144.329 8.466 145.439 8.004 146.795 8.004C148.151 8.004 149.261 8.466 150.125 9.39C151.001 10.302 151.439 11.478 151.439 12.918V16.266C151.439 17.706 151.001 18.888 150.125 19.812ZM146.795 19.236C147.599 19.236 148.241 18.972 148.721 18.444C149.213 17.916 149.459 17.19 149.459 16.266V12.918C149.459 11.994 149.213 11.268 148.721 10.74C148.241 10.212 147.599 9.948 146.795 9.948C146.003 9.948 145.361 10.212 144.869 10.74C144.389 11.268 144.149 11.994 144.149 12.918V16.266C144.149 17.19 144.389 17.916 144.869 18.444C145.361 18.972 146.003 19.236 146.795 19.236Z" fill="#9BC32C"/>
</svg>
