<svg width="162" height="29" viewBox="0 0 162 29" fill="none" xmlns="http://www.w3.org/2000/svg">
<path d="M5.13632 24.0975C6.19178 25.15 7.51955 25.6756 9.11878 25.6756C10.7176 25.6756 12.0421 25.15 13.0936 24.0975C14.1444 23.045 14.6692 21.7256 14.6692 20.1408C14.6692 18.5549 14.1444 17.238 13.0936 16.1901C12.0421 15.1435 10.7176 14.6197 9.11878 14.6197C7.51955 14.6197 6.19178 15.146 5.13632 16.1985C4.08022 17.2504 3.55226 18.5645 3.55226 20.1408C3.55226 21.7256 4.08022 23.045 5.13632 24.0975ZM15.4847 11.7077L18.1762 11.7223V28.5734H15.3622L15.0234 26.5297C14.2443 27.3128 13.3263 27.9198 12.2712 28.3517C11.2151 28.7841 10.0772 28.9999 8.85718 28.9999C7.19639 28.9999 5.68963 28.6159 4.33665 27.8484C2.98332 27.0817 1.92227 26.0184 1.15334 24.6624C0.38464 23.3051 0 21.7977 0 20.1408C0 18.4733 0.38464 16.9667 1.15334 15.619C1.92227 14.2724 2.98332 13.2176 4.33665 12.4544C5.68963 11.6921 7.19639 11.3107 8.85718 11.3107C10.0878 11.3107 11.2352 11.5295 12.3017 11.9671C13.3676 12.4044 14.2907 13.0245 15.0695 13.8267L15.4847 11.7077Z" fill="#1CABC4"/>
<path d="M23.1576 5.68396H26.6479V28.5884H23.1576V5.68396Z" fill="#1CABC4"/>
<path d="M50.621 11.3414C52.4052 11.3414 53.8521 11.9515 54.9644 13.1718C56.0772 14.3912 56.6336 15.9566 56.6336 17.8684V28.5889H53.1429V18.7226C53.1429 17.3593 52.8559 16.3079 52.2824 15.5654C51.7075 14.8236 50.8927 14.4519 49.8366 14.4519C48.6991 14.4519 47.7481 14.9152 46.9847 15.84C46.2202 16.766 45.8392 17.9392 45.8392 19.3627V28.5889H42.4252V18.7226C42.4252 17.3593 42.141 16.3079 41.572 15.5654C41.003 14.8236 40.185 14.4519 39.1194 14.4519C37.9815 14.4519 37.0282 14.9152 36.2586 15.84C35.4899 16.766 35.106 17.9392 35.106 19.3627V28.5889H31.6156V11.7222H34.0908L34.6909 13.9032C35.3361 13.1003 36.1231 12.4725 37.0514 12.0196C37.9783 11.568 38.9554 11.3414 39.98 11.3414C41.1187 11.3414 42.1305 11.6034 43.0174 12.1264C43.9038 12.6507 44.5936 13.375 45.0853 14.2993C45.7106 13.3848 46.5097 12.6634 47.4839 12.1342C48.4578 11.6057 49.5034 11.3414 50.621 11.3414Z" fill="#1CABC4"/>
<path d="M65.2599 24.0975C66.3153 25.15 67.643 25.6756 69.243 25.6756C70.8411 25.6756 72.1659 25.15 73.2178 24.0975C74.268 23.045 74.7927 21.7256 74.7927 20.1408C74.7927 18.5549 74.268 17.238 73.2178 16.1901C72.1659 15.1435 70.8411 14.6197 69.243 14.6197C67.643 14.6197 66.3153 15.146 65.2599 16.1985C64.2039 17.2504 63.6764 18.5645 63.6764 20.1408C63.6764 21.7256 64.2039 23.045 65.2599 24.0975ZM75.6082 11.7077L78.2997 11.7223V28.5734H75.4857L75.1469 26.5297C74.3682 27.3128 73.4509 27.9198 72.3948 28.3517C71.3387 28.7841 70.2008 28.9999 68.9807 28.9999C67.3209 28.9999 65.8131 28.6159 64.4601 27.8484C63.1068 27.0817 62.0462 26.0184 61.2772 24.6624C60.5082 23.3051 60.1235 21.7977 60.1235 20.1408C60.1235 18.4733 60.5082 16.9667 61.2772 15.619C62.0462 14.2724 63.1068 13.2176 64.4601 12.4544C65.8131 11.6921 67.3209 11.3107 68.9807 11.3107C70.2112 11.3107 71.3587 11.5295 72.4252 11.9671C73.4911 12.4044 74.4139 13.0245 75.1931 13.8267L75.6082 11.7077Z" fill="#1CABC4"/>
<path d="M11.8043 1.61328C11.5722 3.70003 12.2757 5.48795 13.6574 7.01439C14.8324 8.31102 16.3202 9.05538 18.0926 9.05538C18.2287 8.32793 18.199 7.61721 17.993 6.92741C17.1655 4.16462 15.3129 2.45016 12.5146 1.72131C12.2442 1.65053 12.0815 1.61328 11.8043 1.61328Z" fill="#9BC32C"/>
<path d="M91.6638 21.216C90.2958 21.216 89.1858 20.838 88.3338 20.082C87.4938 19.314 87.0498 18.396 87.0018 17.328H89.1078C89.1798 17.94 89.4618 18.414 89.9538 18.75C90.4578 19.086 91.0218 19.254 91.6458 19.254C92.2698 19.254 92.7798 19.11 93.1758 18.822C93.5838 18.522 93.7878 18.126 93.7878 17.634C93.7878 16.77 93.1998 16.146 92.0238 15.762L90.4578 15.24C88.3698 14.58 87.3258 13.35 87.3258 11.55C87.3258 10.458 87.6978 9.594 88.4418 8.958C89.1978 8.322 90.1818 8.004 91.3938 8.004C92.6538 8.004 93.6558 8.37 94.3998 9.102C95.1438 9.822 95.5578 10.674 95.6418 11.658H93.5358C93.4038 11.094 93.1338 10.674 92.7258 10.398C92.3178 10.11 91.8618 9.966 91.3578 9.966C90.8058 9.966 90.3498 10.104 89.9898 10.38C89.6298 10.644 89.4438 10.998 89.4318 11.442C89.4318 11.898 89.5698 12.27 89.8458 12.558C90.1218 12.834 90.5598 13.068 91.1598 13.26L92.7438 13.764C94.8558 14.448 95.9118 15.714 95.9118 17.562C95.9118 18.642 95.5158 19.524 94.7238 20.208C93.9438 20.88 92.9238 21.216 91.6638 21.216ZM100.51 21V10.236H96.802V8.22H106.342V10.236H102.616V21H100.51ZM105.532 21L111.112 8.22H112.948L118.528 21H116.332L114.874 17.652H109.15L107.71 21H105.532ZM112.012 11.064L109.96 15.78H114.064L112.012 11.064ZM131.316 21H129.48L122.28 11.802V21H120.174V8.22H122.01L129.192 17.4V8.22H131.316V21Z" fill="#9BC32C"/>
</svg>
