<svg width="14" height="24" viewBox="0 0 14 24" fill="none" xmlns="http://www.w3.org/2000/svg">
<path d="M4.70452 11.9203L13.6195 3.00498C13.865 2.76009 14 2.43266 14 2.08353C14 1.73421 13.865 1.40697 13.6195 1.16169L12.8383 0.380902C12.5932 0.135234 12.2656 0 11.9165 0C11.5673 0 11.2401 0.135234 10.9948 0.380902L0.380132 10.9954C0.133883 11.2415 -0.000963533 11.5702 5.19068e-06 11.9198C-0.000963533 12.2708 0.133689 12.5992 0.380132 12.8455L10.9849 23.4497C11.2302 23.6954 11.5575 23.8306 11.9068 23.8306C12.2559 23.8306 12.5831 23.6954 12.8286 23.4497L13.6096 22.6689C14.1178 22.1607 14.1178 21.3334 13.6096 20.8254L4.70452 11.9203Z" fill="#000026"/>
</svg>
