<svg width="14" height="24" viewBox="0 0 14 24" fill="none" xmlns="http://www.w3.org/2000/svg">
<path d="M9.29548 11.9203L0.380514 3.00498C0.135039 2.76009 -3.98862e-07 2.43266 -3.98862e-07 2.08353C-3.98862e-07 1.73421 0.135039 1.40697 0.380514 1.16169L1.16169 0.380902C1.40678 0.135234 1.7344 0 2.08353 0C2.43266 0 2.75989 0.135234 3.00517 0.380902L13.6199 10.9954C13.8661 11.2415 14.001 11.5702 14 11.9198C14.001 12.2708 13.8663 12.5992 13.6199 12.8455L3.01505 23.4497C2.76977 23.6954 2.44254 23.8306 2.09322 23.8306C1.74409 23.8306 1.41685 23.6954 1.17138 23.4497L0.390395 22.6689C-0.117797 22.1607 -0.117797 21.3334 0.390395 20.8254L9.29548 11.9203Z" fill="#000026"/>
</svg>
